<?xml version="1.0" encoding="UTF-8" standalone="no" ?>
<!DOCTYPE svg PUBLIC "-//W3C//DTD SVG 1.1//EN" "http://www.w3.org/Graphics/SVG/1.1/DTD/svg11.dtd">
<svg xmlns="http://www.w3.org/2000/svg" version="1.1" width="1080" height="1080" viewBox="0 0 1080 1080"
	 xml:space="preserve">
<desc>Created with Fabric.js 5.2.4</desc>
<defs>
</defs>
<g transform="matrix(1 0 0 1 540 540)" id="7da0331b-8253-4cac-8957-a817f64c0871"  >
<rect style="stroke: none; stroke-width: 1; stroke-dasharray: none; stroke-linecap: butt; stroke-dashoffset: 0; stroke-linejoin: miter; stroke-miterlimit: 4; fill: rgb(255,255,255); fill-rule: nonzero; opacity: 1; visibility: hidden;" vector-effect="non-scaling-stroke"  x="-540" y="-540" rx="0" ry="0" width="1080" height="1080" />
</g>
<g transform="matrix(1 0 0 1 540 540)" id="bae30137-bea0-4275-a812-2050aa9939fc"  >
</g>
<g transform="matrix(7.88 0 0 7.88 540 540)"  >
<g style=""   >
		<g transform="matrix(0.77 0 0 0.77 0 0)" id="y-0"  >
<path style="stroke: none; stroke-width: 1; stroke-dasharray: none; stroke-linecap: butt; stroke-dashoffset: 0; stroke-linejoin: miter; stroke-miterlimit: 4; fill: rgb(0,0,0); fill-rule: nonzero; opacity: 1;" vector-effect="non-scaling-stroke"  transform=" translate(-50, -50)" d="M 50 7.85 C 26.758 7.85 7.850000000000001 26.758000000000003 7.850000000000001 50 C 7.850000000000001 73.242 26.759 92.15 50 92.15 C 73.241 92.15 92.15 73.24100000000001 92.15 50.00000000000001 C 92.15 26.759 73.241 7.85 50 7.85 z M 50 89.861 C 28.021 89.861 10.137999999999998 71.979 10.139000000000003 50.00000000000001 C 10.140000000000008 28.021000000000015 28.021000000000004 10.13900000000001 50 10.13900000000001 C 71.979 10.13900000000001 89.86099999999999 28.02000000000001 89.86099999999999 50.00000000000001 C 89.86099999999999 71.98 71.98 89.861 50 89.861 z" stroke-linecap="round" />
</g>
		<g transform="matrix(0.77 0 0 0.77 0 -1.4)" id="y-0"  >
<path style="stroke: none; stroke-width: 1; stroke-dasharray: none; stroke-linecap: butt; stroke-dashoffset: 0; stroke-linejoin: miter; stroke-miterlimit: 4; fill: rgb(0,0,0); fill-rule: nonzero; opacity: 1;" vector-effect="non-scaling-stroke"  transform=" translate(-50, -48.18)" d="M 50 28.5 C 50 28.5 42.034 37.368 42.034 48.307 C 42.034 58.161 44.929 66.332 48.719 67.855 C 48.905 60.676 50 50.89 50 50.89 C 50 50.89 51.095 60.676 51.281 67.855 C 55.071 66.331 57.966 58.161 57.966 48.307 C 57.966 37.368 50 28.5 50 28.5 z" stroke-linecap="round" />
</g>
		<g transform="matrix(0.77 0 0 0.77 16.09 5.49)" id="y-0"  >
<path style="stroke: none; stroke-width: 1; stroke-dasharray: none; stroke-linecap: butt; stroke-dashoffset: 0; stroke-linejoin: miter; stroke-miterlimit: 4; fill: rgb(0,0,0); fill-rule: nonzero; opacity: 1;" vector-effect="non-scaling-stroke"  transform=" translate(-71.01, -57.16)" d="M 65.991 50.863 C 58.903999999999996 57.71 55.039 65.469 56.577 69.253 C 61.869 64.399 69.66799999999999 58.385999999999996 69.66799999999999 58.387 C 69.66799999999999 58.388000000000005 63.39099999999999 65.974 58.35699999999999 71.095 C 62.08599999999999 72.762 69.97399999999999 69.167 77.06099999999999 62.321 C 84.928 54.72 85.77099999999999 42.83 85.77099999999999 42.83 C 85.77099999999999 42.83 73.858 43.262 65.991 50.863 z" stroke-linecap="round" />
</g>
		<g transform="matrix(0.77 0 0 0.77 -16.09 5.49)" id="y-0"  >
<path style="stroke: none; stroke-width: 1; stroke-dasharray: none; stroke-linecap: butt; stroke-dashoffset: 0; stroke-linejoin: miter; stroke-miterlimit: 4; fill: rgb(0,0,0); fill-rule: nonzero; opacity: 1;" vector-effect="non-scaling-stroke"  transform=" translate(-28.99, -57.16)" d="M 14.229 42.83 C 14.229 42.83 15.072 54.72 22.939 62.321 C 30.026 69.16799999999999 37.913 72.763 41.643 71.095 C 36.609 65.973 30.332 58.385999999999996 30.332 58.387 C 30.332 58.388000000000005 38.131 64.399 43.423 69.253 C 44.961 65.468 41.096000000000004 57.71 34.009 50.863 C 26.142 43.262 14.229 42.83 14.229 42.83 z" stroke-linecap="round" />
</g>
		<g transform="matrix(1 0 0 1 -61.35 -21.8)" id="text-0"  >
<path style="stroke: none; stroke-width: 1; stroke-dasharray: none; stroke-linecap: butt; stroke-dashoffset: 0; stroke-linejoin: miter; stroke-miterlimit: 4; fill: rgb(0,0,0); fill-rule: nonzero; opacity: 1;" vector-effect="non-scaling-stroke"  transform=" translate(-7.14, -46.69)" d="M 12.496 45.922 L 11.125 45.47 L 11.081 45.605 C 11.491 45.854 11.774 46.229 11.93 46.73 C 12.094999999999999 47.226 12.058 47.834999999999994 11.821 48.556 L 11.821 48.556 C 11.642999999999999 49.096999999999994 11.379 49.552 11.029 49.922 C 10.683 50.3 10.249 50.577999999999996 9.727 50.756 C 9.213000000000001 50.929 8.606 50.997 7.905 50.958 C 7.198 50.918 6.407 50.753 5.532 50.466 L 5.532 50.466 C 3.7750000000000004 49.887 2.596 49.135 1.995 48.21 C 1.3900000000000001 47.276 1.2840000000000003 46.21 1.6780000000000002 45.013 L 1.6780000000000002 45.013 C 1.9620000000000002 44.150999999999996 2.3760000000000003 43.519999999999996 2.9210000000000003 43.122 C 3.4640000000000004 42.73 4.109 42.493 4.857 42.411 L 4.857 42.411 L 5.1080000000000005 43.532000000000004 C 4.532000000000001 43.54900000000001 4.035 43.703 3.6190000000000007 43.993 C 3.1960000000000006 44.282000000000004 2.884000000000001 44.732 2.6820000000000004 45.343 L 2.6820000000000004 45.343 C 2.4110000000000005 46.167 2.4730000000000003 46.886 2.8700000000000006 47.502 C 3.2640000000000007 48.124 3.9180000000000006 48.586000000000006 4.832000000000001 48.887 L 4.832000000000001 48.887 L 7.042000000000001 49.615 C 7.949000000000001 49.914 8.75 49.931000000000004 9.443000000000001 49.667 C 10.128000000000002 49.407000000000004 10.606000000000002 48.866 10.877 48.042 L 10.877 48.042 C 10.981 47.727000000000004 11.032 47.408 11.031 47.087 C 11.030000000000001 46.766000000000005 10.974 46.469 10.864 46.197 C 10.745000000000001 45.93 10.574000000000002 45.691 10.351 45.483000000000004 C 10.123000000000001 45.265 9.839 45.1 9.497000000000002 44.98800000000001 L 9.497000000000002 44.98800000000001 L 8.426000000000002 44.635000000000005 L 7.783000000000002 46.58500000000001 L 6.799000000000002 46.260000000000005 L 7.803000000000003 43.21000000000001 L 12.842000000000002 44.86900000000001 z" stroke-linecap="round" />
</g>
		<g transform="matrix(1 0 0 1 -57.8 -29.13)" id="text-0"  >
<path style="stroke: none; stroke-width: 1; stroke-dasharray: none; stroke-linecap: butt; stroke-dashoffset: 0; stroke-linejoin: miter; stroke-miterlimit: 4; fill: rgb(0,0,0); fill-rule: nonzero; opacity: 1;" vector-effect="non-scaling-stroke"  transform=" translate(-10.7, -39.37)" d="M 14.401 41.622 L 13.914 42.64 L 6.992 39.329 L 7.479 38.311 L 8.771 38.929 L 8.837000000000002 38.792 C 8.489 38.483000000000004 8.266000000000002 38.132000000000005 8.169000000000002 37.74 C 8.077000000000002 37.351 8.141000000000002 36.927 8.360000000000003 36.468 L 8.360000000000003 36.468 L 8.540000000000003 36.092000000000006 L 9.576000000000002 36.58800000000001 L 9.256000000000002 37.257000000000005 C 9.025000000000002 37.74 8.951000000000002 38.17 9.033000000000001 38.548 C 9.115000000000002 38.925000000000004 9.370000000000001 39.216 9.798000000000002 39.421 L 9.798000000000002 39.421 z" stroke-linecap="round" />
</g>
		<g transform="matrix(1 0 0 1 -53.95 -34.81)" id="text-0"  >
<path style="stroke: none; stroke-width: 1; stroke-dasharray: none; stroke-linecap: butt; stroke-dashoffset: 0; stroke-linejoin: miter; stroke-miterlimit: 4; fill: rgb(0,0,0); fill-rule: nonzero; opacity: 1;" vector-effect="non-scaling-stroke"  transform=" translate(-14.54, -33.68)" d="M 17.95 35.758 L 17.95 35.758 C 17.714 36.138000000000005 17.43 36.452000000000005 17.099999999999998 36.701 C 16.769 36.95 16.389999999999997 37.105000000000004 15.960999999999999 37.166000000000004 C 15.537999999999998 37.230000000000004 15.070999999999998 37.199000000000005 14.559 37.072 C 14.045 36.936 13.485999999999999 36.68 12.882 36.304 L 12.882 36.304 C 12.272 35.925000000000004 11.795 35.536 11.452 35.14 C 11.106 34.734 10.869 34.326 10.74 33.918 C 10.605 33.507 10.579 33.1 10.661 32.697 C 10.738 32.290000000000006 10.895 31.897000000000002 11.132 31.517000000000003 L 11.132 31.517000000000003 C 11.365 31.143000000000004 11.642999999999999 30.837000000000003 11.966 30.6 C 12.283999999999999 30.359 12.651 30.216 13.068999999999999 30.173000000000002 C 13.481 30.126 13.940999999999999 30.176000000000002 14.447 30.324 C 14.950999999999999 30.462000000000003 15.508999999999999 30.721 16.119 31.1 L 16.119 31.1 L 16.352 31.245 L 13.749 35.431 L 14.171000000000001 35.693999999999996 C 14.81 36.090999999999994 15.378000000000002 36.24099999999999 15.878000000000002 36.144999999999996 C 16.373 36.053999999999995 16.782000000000004 35.74999999999999 17.104000000000003 35.232 L 17.104000000000003 35.232 C 17.376 34.795 17.503000000000004 34.379 17.485000000000003 33.984 C 17.467000000000002 33.59 17.318 33.194 17.038000000000004 32.797000000000004 L 17.038000000000004 32.797000000000004 L 17.921000000000003 32.43600000000001 C 18.245000000000005 32.916000000000004 18.423000000000002 33.43800000000001 18.455000000000002 34.00200000000001 C 18.494000000000003 34.56900000000001 18.325000000000003 35.15400000000001 17.950000000000003 35.75800000000001 z M 11.934 32.017 L 11.934 32.016000000000005 C 11.607999999999999 32.540000000000006 11.52 33.047000000000004 11.67 33.53900000000001 C 11.818999999999999 34.031000000000006 12.213 34.47500000000001 12.850999999999999 34.87300000000001 L 12.850999999999999 34.87300000000001 L 13.024 34.98000000000001 L 14.988 31.821000000000012 L 14.815 31.714000000000013 C 13.52 30.909000000000013 12.559999999999999 31.010000000000012 11.934 32.01600000000001 z" stroke-linecap="round" />
</g>
		<g transform="matrix(1 0 0 1 -49.09 -41.47)" id="text-0"  >
<path style="stroke: none; stroke-width: 1; stroke-dasharray: none; stroke-linecap: butt; stroke-dashoffset: 0; stroke-linejoin: miter; stroke-miterlimit: 4; fill: rgb(0,0,0); fill-rule: nonzero; opacity: 1;" vector-effect="non-scaling-stroke"  transform=" translate(-19.4, -27.02)" d="M 22.51 29.532 L 22.51 29.532 C 22.227 29.878 21.906000000000002 30.154 21.546000000000003 30.358 C 21.186000000000003 30.563 20.790000000000003 30.668 20.357000000000003 30.673000000000002 C 19.929000000000002 30.682000000000002 19.470000000000002 30.591 18.979000000000003 30.400000000000002 C 18.487000000000002 30.199 17.965000000000003 29.874000000000002 17.414 29.424000000000003 L 17.414 29.424000000000003 C 16.858 28.970000000000002 16.435000000000002 28.523000000000003 16.146 28.085000000000004 C 15.855 27.638000000000005 15.672 27.203000000000003 15.596 26.782000000000004 C 15.515 26.357000000000003 15.541 25.950000000000003 15.675 25.561000000000003 C 15.804 25.168000000000003 16.01 24.798000000000002 16.293 24.452000000000005 L 16.293 24.452000000000005 C 16.572 24.111000000000004 16.887 23.843000000000004 17.238 23.649000000000004 C 17.584 23.450000000000003 17.967 23.357000000000003 18.387 23.367000000000004 C 18.802 23.373000000000005 19.251 23.482000000000003 19.734 23.694000000000006 C 20.217000000000002 23.896000000000008 20.736 24.224000000000007 21.292 24.678000000000004 L 21.292 24.678000000000004 L 21.504 24.852000000000004 L 18.385 28.669000000000004 L 18.771 28.984000000000005 C 19.353 29.460000000000004 19.898 29.682000000000006 20.405 29.650000000000006 C 20.908 29.623000000000005 21.352 29.374000000000006 21.739 28.902000000000005 L 21.739 28.902000000000005 C 22.065 28.503000000000004 22.244 28.107000000000003 22.276 27.714000000000006 C 22.309 27.321000000000005 22.212 26.909000000000006 21.986 26.479000000000006 L 21.986 26.479000000000006 L 22.908 26.235000000000007 C 23.167 26.753000000000007 23.277 27.293000000000006 23.237000000000002 27.855000000000008 C 23.203000000000003 28.422000000000008 22.96 28.98100000000001 22.51 29.532000000000007 z M 17.025 25.05 L 17.025 25.05 C 16.634999999999998 25.527 16.482 26.02 16.567 26.526 C 16.652 27.033 16.985 27.524 17.567 28 L 17.567 28 L 17.724 28.128 L 20.078 25.248 L 19.921 25.119 C 18.741 24.154 17.775 24.131 17.025 25.05 z" stroke-linecap="round" />
</g>
		<g transform="matrix(1 0 0 1 -43.36 -47.17)" id="text-0"  >
<path style="stroke: none; stroke-width: 1; stroke-dasharray: none; stroke-linecap: butt; stroke-dashoffset: 0; stroke-linejoin: miter; stroke-miterlimit: 4; fill: rgb(0,0,0); fill-rule: nonzero; opacity: 1;" vector-effect="non-scaling-stroke"  transform=" translate(-25.13, -21.32)" d="M 26.626 24.814 L 25.810000000000002 25.593 L 20.513 20.043 L 21.329 19.264 L 22.192 20.168 L 22.302 20.063 C 22.082 19.616999999999997 22.003 19.201 22.065 18.814 C 22.127000000000002 18.427 22.351000000000003 18.049 22.739 17.679 L 22.739 17.679 C 23.234 17.206999999999997 23.783 17.000999999999998 24.385 17.063 C 24.992 17.13 25.630000000000003 17.514 26.299000000000003 18.215 L 26.299000000000003 18.215 L 29.751000000000005 21.832 L 28.928000000000004 22.618000000000002 L 25.531000000000006 19.060000000000002 C 25.105000000000008 18.614 24.690000000000005 18.360000000000003 24.284000000000006 18.297 C 23.878000000000007 18.235 23.484000000000005 18.386 23.102000000000007 18.752 L 23.102000000000007 18.752 C 22.774000000000008 19.064999999999998 22.588000000000008 19.43 22.544000000000008 19.846 C 22.505000000000006 20.267 22.662000000000006 20.661 23.01300000000001 21.028 L 23.01300000000001 21.028 z" stroke-linecap="round" />
</g>
		<g transform="matrix(1 0 0 1 -37.32 -54.12)" id="text-0"  >
<path style="stroke: none; stroke-width: 1; stroke-dasharray: none; stroke-linecap: butt; stroke-dashoffset: 0; stroke-linejoin: miter; stroke-miterlimit: 4; fill: rgb(0,0,0); fill-rule: nonzero; opacity: 1;" vector-effect="non-scaling-stroke"  transform=" translate(-31.17, -14.37)" d="M 36.538 16.89 L 31.886999999999997 20.257 L 25.801999999999996 11.852000000000002 L 30.452999999999996 8.485000000000003 L 31.060999999999996 9.324000000000003 L 27.372999999999998 11.994000000000003 L 29.464999999999996 14.884000000000004 L 32.922 12.381000000000004 L 33.535999999999994 13.229000000000005 L 30.078999999999994 15.732000000000005 L 32.24199999999999 18.720000000000006 L 35.92999999999999 16.050000000000004 z" stroke-linecap="round" />
</g>
		<g transform="matrix(1 0 0 1 -31.62 -58.02)" id="text-0"  >
<path style="stroke: none; stroke-width: 1; stroke-dasharray: none; stroke-linecap: butt; stroke-dashoffset: 0; stroke-linejoin: miter; stroke-miterlimit: 4; fill: rgb(0,0,0); fill-rule: nonzero; opacity: 1;" vector-effect="non-scaling-stroke"  transform=" translate(-36.87, -10.47)" d="M 40.507 14.664 L 39.696 15.128 C 39.342999999999996 15.33 39.041999999999994 15.397 38.791999999999994 15.328 C 38.541999999999994 15.26 38.31699999999999 15.049 38.114999999999995 14.697 L 38.114999999999995 14.697 L 33.227999999999994 6.1469999999999985 L 34.206999999999994 5.586999999999998 L 39.175 14.277999999999999 L 40.013 13.799 z" stroke-linecap="round" />
</g>
		<g transform="matrix(1 0 0 1 -25.23 -59.25)" id="text-0"  >
<path style="stroke: none; stroke-width: 1; stroke-dasharray: none; stroke-linecap: butt; stroke-dashoffset: 0; stroke-linejoin: miter; stroke-miterlimit: 4; fill: rgb(0,0,0); fill-rule: nonzero; opacity: 1;" vector-effect="non-scaling-stroke"  transform=" translate(-43.26, -9.24)" d="M 44.865 12.902 L 44.865 12.902 C 44.456 13.082999999999998 44.045 13.183 43.631 13.203999999999999 C 43.218 13.223999999999998 42.817 13.137999999999998 42.428 12.947 C 42.041999999999994 12.761999999999999 41.674 12.472999999999999 41.323 12.081 C 40.975 11.679 40.657000000000004 11.152999999999999 40.368 10.503 L 40.368 10.503 C 40.077000000000005 9.846 39.902 9.257 39.842 8.735 C 39.785 8.205 39.818 7.734 39.94 7.324999999999999 C 40.059999999999995 6.908999999999999 40.266999999999996 6.557999999999999 40.562999999999995 6.270999999999999 C 40.855999999999995 5.977999999999999 41.206999999999994 5.741999999999999 41.614999999999995 5.560999999999999 L 41.614999999999995 5.560999999999999 C 42.017999999999994 5.382999999999999 42.419999999999995 5.285999999999999 42.821 5.270999999999999 C 43.219 5.249999999999999 43.602999999999994 5.339999999999999 43.973 5.538999999999999 C 44.339999999999996 5.731999999999998 44.691 6.031999999999999 45.027 6.439999999999999 C 45.366 6.837999999999998 45.681000000000004 7.365999999999999 45.972 8.021999999999998 L 45.972 8.021999999999998 L 46.083 8.272999999999998 L 41.576 10.267999999999997 L 41.778 10.723999999999997 C 42.082 11.411999999999997 42.467999999999996 11.855999999999996 42.934 12.055999999999997 C 43.394999999999996 12.259999999999998 43.903999999999996 12.237999999999998 44.461999999999996 11.991999999999997 L 44.461999999999996 11.991999999999997 C 44.93299999999999 11.783999999999997 45.272 11.510999999999997 45.477999999999994 11.174999999999997 C 45.684999999999995 10.838999999999997 45.785 10.427999999999997 45.776999999999994 9.941999999999997 L 45.776999999999994 9.941999999999997 L 46.709999999999994 10.140999999999996 C 46.706999999999994 10.719999999999997 46.56099999999999 11.251999999999997 46.270999999999994 11.734999999999996 C 45.983999999999995 12.224999999999996 45.51499999999999 12.613999999999995 44.864999999999995 12.901999999999996 z M 41.998 6.425 L 41.998 6.425 C 41.434 6.675 41.076 7.044 40.922 7.535 C 40.769 8.025 40.843999999999994 8.614 41.147999999999996 9.302 L 41.147999999999996 9.302 L 41.23 9.487 L 44.632 7.982 L 44.55 7.796 C 43.933 6.402 43.081999999999994 5.945 41.998 6.425000000000001 z" stroke-linecap="round" />
</g>
		<g transform="matrix(1 0 0 1 -16.84 -61.23)" id="text-0"  >
<path style="stroke: none; stroke-width: 1; stroke-dasharray: none; stroke-linecap: butt; stroke-dashoffset: 0; stroke-linejoin: miter; stroke-miterlimit: 4; fill: rgb(0,0,0); fill-rule: nonzero; opacity: 1;" vector-effect="non-scaling-stroke"  transform=" translate(-51.66, -7.26)" d="M 55.433 10.077 L 55.433 10.077 C 55.662 10.857 55.559 11.494 55.125 11.989 C 54.699 12.488000000000001 53.934 12.9 52.829 13.223 L 52.829 13.223 C 51.776 13.532 50.979 13.596 50.439 13.416 C 49.892 13.237 49.532 12.852 49.359 12.26 L 49.359 12.26 C 49.241 11.857 49.249 11.512 49.384 11.225999999999999 C 49.519 10.938999999999998 49.734 10.720999999999998 50.028 10.571 L 50.028 10.571 L 49.971 10.376 C 49.751999999999995 10.327 49.562 10.235 49.401999999999994 10.097999999999999 C 49.24399999999999 9.967999999999998 49.13099999999999 9.789 49.06499999999999 9.560999999999998 L 49.06499999999999 9.560999999999998 C 48.97499999999999 9.254999999999999 48.98599999999999 8.965999999999998 49.09699999999999 8.693999999999999 C 49.207999999999984 8.421 49.457999999999984 8.203 49.84699999999999 8.04 L 49.84699999999999 8.04 L 49.801999999999985 7.8839999999999995 C 49.362999999999985 7.808 48.98099999999999 7.6129999999999995 48.65499999999999 7.297999999999999 C 48.329999999999984 6.983999999999999 48.082999999999984 6.5409999999999995 47.91599999999999 5.968999999999999 L 47.91599999999999 5.968999999999999 C 47.67199999999999 5.137 47.71499999999999 4.438999999999999 48.04399999999999 3.8769999999999993 C 48.37999999999999 3.3129999999999993 48.93099999999999 2.9179999999999993 49.69799999999999 2.6919999999999993 L 49.69799999999999 2.6919999999999993 C 50.15299999999999 2.5589999999999993 50.589999999999996 2.5189999999999992 51.007999999999996 2.5729999999999995 L 51.007999999999996 2.5729999999999995 L 50.934 2.3189999999999995 C 50.852 2.0389999999999997 50.855 1.8199999999999994 50.942 1.6609999999999996 C 51.029 1.5009999999999997 51.213 1.3799999999999994 51.492 1.2979999999999996 L 51.492 1.2979999999999996 L 52.477 1.0089999999999997 L 52.757999999999996 1.9649999999999996 L 51.489999999999995 2.3369999999999997 L 51.60699999999999 2.7359999999999998 C 51.91899999999999 2.885 52.18999999999999 3.098 52.419999999999995 3.377 C 52.651999999999994 3.662 52.834999999999994 4.032 52.967999999999996 4.487 L 52.967999999999996 4.487 C 53.214 5.3260000000000005 53.172 6.026 52.842999999999996 6.589 C 52.513999999999996 7.152 51.961999999999996 7.546 51.187999999999995 7.773000000000001 L 51.187999999999995 7.773000000000001 C 50.959999999999994 7.840000000000001 50.71999999999999 7.886000000000001 50.465999999999994 7.9110000000000005 L 50.465999999999994 7.9110000000000005 C 50.212999999999994 8.035 50.041999999999994 8.198 49.952999999999996 8.4 C 49.86599999999999 8.609 49.846999999999994 8.798 49.897 8.968 L 49.897 8.968 C 49.954 9.163 50.064 9.286 50.228 9.337 C 50.387 9.395999999999999 50.619 9.381 50.924 9.291 L 50.924 9.291 L 52.533 8.819 C 53.359 8.577000000000002 54.002 8.568000000000001 54.464 8.793000000000001 C 54.925 9.018 55.248 9.446000000000002 55.433 10.077000000000002 z M 54.439 10.442 L 54.439 10.442 C 54.344 10.117 54.171 9.903 53.922 9.8 C 53.671 9.690000000000001 53.305 9.706000000000001 52.824 9.846 L 52.824 9.846 L 50.580999999999996 10.504 C 50.38999999999999 10.673 50.273999999999994 10.852 50.23 11.041 C 50.193 11.228 50.211 11.446 50.282999999999994 11.693 L 50.282999999999994 11.693 C 50.391999999999996 12.064 50.590999999999994 12.323 50.88199999999999 12.469999999999999 C 51.17199999999999 12.617999999999999 51.56799999999999 12.617999999999999 52.06799999999999 12.472 L 52.06799999999999 12.472 L 53.01399999999999 12.195 C 53.60599999999999 12.022 54.02199999999999 11.793000000000001 54.264999999999986 11.51 C 54.506999999999984 11.227 54.56499999999998 10.871 54.438999999999986 10.442 z M 50.928 6.886 L 50.928 6.886 C 51.376999999999995 6.7540000000000004 51.690999999999995 6.539 51.872 6.239 C 52.052 5.939 52.073 5.552 51.933 5.077 L 51.933 5.077 L 51.778999999999996 4.55 C 51.63999999999999 4.075 51.412 3.7569999999999997 51.096999999999994 3.596 C 50.782999999999994 3.4410000000000003 50.401999999999994 3.4290000000000003 49.952999999999996 3.56 L 49.952999999999996 3.56 C 49.504 3.692 49.19 3.907 49.00899999999999 4.208 C 48.830999999999996 4.515000000000001 48.81099999999999 4.905 48.95099999999999 5.3790000000000004 L 48.95099999999999 5.3790000000000004 L 49.105 5.906000000000001 C 49.244 6.381 49.471 6.695 49.785 6.851000000000001 C 50.099 7.006000000000001 50.48 7.018000000000001 50.928 6.886000000000001 z" stroke-linecap="round" />
</g>
		<g transform="matrix(1 0 0 1 -9.54 -63.6)" id="text-0"  >
<path style="stroke: none; stroke-width: 1; stroke-dasharray: none; stroke-linecap: butt; stroke-dashoffset: 0; stroke-linejoin: miter; stroke-miterlimit: 4; fill: rgb(0,0,0); fill-rule: nonzero; opacity: 1;" vector-effect="non-scaling-stroke"  transform=" translate(-58.95, -4.89)" d="M 62.391 8.071 L 61.598 8.201 C 60.876 8.319 60.455999999999996 8.017000000000001 60.338 7.295000000000001 L 60.338 7.295000000000001 L 60.313 7.1450000000000005 L 60.163000000000004 7.170000000000001 C 60.112 7.652000000000001 59.938 8.041 59.643 8.336 C 59.341 8.633000000000001 58.957 8.819 58.489000000000004 8.896 L 58.489000000000004 8.896 C 57.754000000000005 9.017000000000001 57.175000000000004 8.919 56.752 8.604000000000001 C 56.330000000000005 8.289000000000001 56.059000000000005 7.770000000000001 55.941 7.048000000000001 L 55.941 7.048000000000001 C 55.826 6.346000000000001 55.968 5.7490000000000006 56.368 5.258000000000001 C 56.763000000000005 4.775000000000001 57.455000000000005 4.452000000000001 58.445 4.290000000000001 L 58.445 4.290000000000001 L 59.808 4.066000000000001 L 59.672 3.234000000000001 C 59.58 2.6720000000000006 59.388999999999996 2.281000000000001 59.099 2.061000000000001 C 58.800999999999995 1.8350000000000009 58.385 1.766000000000001 57.849999999999994 1.8540000000000008 L 57.849999999999994 1.8540000000000008 C 57.40899999999999 1.9260000000000008 57.06999999999999 2.081000000000001 56.833999999999996 2.319000000000001 C 56.590999999999994 2.551000000000001 56.400999999999996 2.8640000000000008 56.266999999999996 3.256000000000001 L 56.266999999999996 3.256000000000001 L 55.504999999999995 2.753000000000001 C 55.638 2.306000000000001 55.894999999999996 1.910000000000001 56.278 1.565000000000001 C 56.66 1.214000000000001 57.144999999999996 0.9900000000000011 57.734 0.894000000000001 L 57.734 0.894000000000001 C 58.597 0.753000000000001 59.282000000000004 0.853000000000001 59.791000000000004 1.195000000000001 C 60.307 1.536000000000001 60.632000000000005 2.115000000000001 60.766000000000005 2.931000000000001 L 60.766000000000005 2.931000000000001 L 61.467000000000006 7.213000000000001 L 62.230000000000004 7.088000000000001 z M 58.61 7.877 L 58.61 7.877 C 58.864 7.835 59.094 7.753 59.301 7.63 C 59.507000000000005 7.507 59.675000000000004 7.359 59.805 7.187 C 59.942 7.0200000000000005 60.04 6.84 60.097 6.6450000000000005 C 60.154 6.45 60.167 6.256 60.136 6.062 L 60.136 6.062 L 59.948 4.9190000000000005 L 58.554 5.147 C 57.966 5.243 57.554 5.4110000000000005 57.318000000000005 5.648000000000001 C 57.08200000000001 5.886000000000001 56.995000000000005 6.192 57.057 6.566000000000001 L 57.057 6.566000000000001 L 57.124 6.978000000000001 C 57.186 7.359000000000001 57.349000000000004 7.621 57.613 7.763000000000001 C 57.877 7.905000000000001 58.208999999999996 7.9430000000000005 58.61 7.877000000000001 z" stroke-linecap="round" />
</g>
		<g transform="matrix(1 0 0 1 -1.59 -64.5)" id="text-0"  >
<path style="stroke: none; stroke-width: 1; stroke-dasharray: none; stroke-linecap: butt; stroke-dashoffset: 0; stroke-linejoin: miter; stroke-miterlimit: 4; fill: rgb(0,0,0); fill-rule: nonzero; opacity: 1;" vector-effect="non-scaling-stroke"  transform=" translate(-66.91, -3.99)" d="M 65.474 7.931 L 64.34700000000001 7.979 L 64.022 0.3129999999999997 L 65.149 0.26499999999999974 L 65.202 1.5139999999999998 L 65.355 1.507 C 65.48400000000001 1.027 65.699 0.6619999999999999 66 0.4119999999999999 C 66.301 0.16199999999999992 66.719 0.02499999999999991 67.254 0.002999999999999947 L 67.254 0.002999999999999947 C 67.938 -0.026000000000000054 68.486 0.18099999999999994 68.89800000000001 0.625 C 69.31000000000002 1.075 69.537 1.785 69.57800000000002 2.752 L 69.57800000000002 2.752 L 69.79000000000002 7.748 L 68.65300000000002 7.796 L 68.44400000000002 2.8820000000000006 C 68.41800000000002 2.2660000000000005 68.27300000000001 1.8010000000000006 68.00900000000001 1.4860000000000007 C 67.74500000000002 1.1720000000000006 67.34900000000002 1.0260000000000007 66.82000000000002 1.0480000000000007 L 66.82000000000002 1.0480000000000007 C 66.36600000000003 1.0670000000000006 65.98600000000002 1.2190000000000007 65.68000000000002 1.5040000000000007 C 65.37400000000002 1.7950000000000006 65.23100000000002 2.194000000000001 65.25300000000001 2.702000000000001 L 65.25300000000001 2.702000000000001 z" stroke-linecap="round" />
</g>
		<g transform="matrix(1 0 0 1 6.61 -64.11)" id="text-0"  >
<path style="stroke: none; stroke-width: 1; stroke-dasharray: none; stroke-linecap: butt; stroke-dashoffset: 0; stroke-linejoin: miter; stroke-miterlimit: 4; fill: rgb(0,0,0); fill-rule: nonzero; opacity: 1;" vector-effect="non-scaling-stroke"  transform=" translate(-75.1, -4.38)" d="M 74.835 8.379 L 74.835 8.379 C 73.884 8.29 73.17099999999999 7.907 72.69699999999999 7.2299999999999995 C 72.21499999999999 6.558999999999999 72.04099999999998 5.515 72.17299999999999 4.097999999999999 L 72.17299999999999 4.097999999999999 C 72.30599999999998 2.674999999999999 72.67199999999998 1.677999999999999 73.26899999999999 1.1079999999999988 C 73.85999999999999 0.5369999999999988 74.63099999999999 0.2959999999999987 75.583 0.3849999999999988 L 75.583 0.3849999999999988 C 76.30499999999999 0.4529999999999988 76.863 0.6709999999999987 77.256 1.041999999999999 C 77.657 1.412999999999999 77.931 1.863999999999999 78.079 2.3949999999999987 L 78.079 2.3949999999999987 L 77.10499999999999 2.772999999999999 C 77.01299999999999 2.3699999999999988 76.83899999999998 2.050999999999999 76.582 1.815999999999999 C 76.326 1.573999999999999 75.961 1.430999999999999 75.48899999999999 1.386999999999999 L 75.48899999999999 1.386999999999999 C 74.868 1.3289999999999988 74.39299999999999 1.4679999999999989 74.06199999999998 1.8049999999999988 C 73.73099999999998 2.141999999999999 73.53099999999998 2.683999999999999 73.45999999999998 3.432999999999999 L 73.45999999999998 3.432999999999999 L 73.31599999999997 4.980999999999999 C 73.24599999999998 5.729999999999999 73.34199999999997 6.299999999999999 73.60499999999998 6.691999999999999 C 73.86799999999998 7.084 74.30899999999997 7.308999999999999 74.92999999999998 7.366999999999999 L 74.92999999999998 7.366999999999999 C 75.42199999999998 7.412999999999999 75.83099999999997 7.341999999999999 76.15399999999998 7.154999999999999 C 76.47099999999998 6.967 76.74099999999999 6.658999999999999 76.96499999999999 6.230999999999999 L 76.96499999999999 6.230999999999999 L 77.74099999999999 6.884999999999999 C 77.46199999999999 7.395999999999999 77.07799999999999 7.788999999999999 76.58999999999999 8.063999999999998 C 76.10199999999999 8.337999999999997 75.517 8.442999999999998 74.835 8.378999999999998 z" stroke-linecap="round" />
</g>
		<g transform="matrix(1 0 0 1 14.16 -62.85)" id="text-0"  >
<path style="stroke: none; stroke-width: 1; stroke-dasharray: none; stroke-linecap: butt; stroke-dashoffset: 0; stroke-linejoin: miter; stroke-miterlimit: 4; fill: rgb(0,0,0); fill-rule: nonzero; opacity: 1;" vector-effect="non-scaling-stroke"  transform=" translate(-82.65, -5.64)" d="M 81.868 9.562 L 81.868 9.562 C 81.431 9.466999999999999 81.03999999999999 9.306 80.69399999999999 9.078 C 80.34799999999998 8.850999999999999 80.07499999999999 8.545 79.87299999999999 8.161999999999999 C 79.66999999999999 7.784999999999999 79.54299999999999 7.334999999999999 79.49 6.810999999999999 C 79.445 6.280999999999999 79.49799999999999 5.668999999999999 79.649 4.972999999999999 L 79.649 4.972999999999999 C 79.801 4.270999999999999 80.006 3.6919999999999993 80.265 3.234999999999999 C 80.532 2.772999999999999 80.835 2.411999999999999 81.176 2.1529999999999987 C 81.518 1.8869999999999987 81.893 1.7259999999999986 82.3 1.6689999999999987 C 82.709 1.6049999999999986 83.13199999999999 1.6209999999999987 83.569 1.7149999999999987 L 83.569 1.7149999999999987 C 83.99900000000001 1.8079999999999987 84.381 1.9669999999999987 84.71300000000001 2.191999999999999 C 85.04700000000001 2.409999999999999 85.305 2.707999999999999 85.486 3.086999999999999 C 85.66900000000001 3.4589999999999987 85.77600000000001 3.908999999999999 85.808 4.435999999999999 C 85.84700000000001 4.957999999999999 85.79100000000001 5.568999999999999 85.63900000000001 6.270999999999999 L 85.63900000000001 6.270999999999999 L 85.58000000000001 6.539999999999999 L 80.763 5.494999999999999 L 80.658 5.981999999999999 C 80.499 6.717 80.548 7.302999999999999 80.807 7.741 C 81.059 8.177 81.483 8.459999999999999 82.07900000000001 8.588 L 82.07900000000001 8.588 C 82.58200000000001 8.697 83.016 8.677 83.382 8.527999999999999 C 83.747 8.377999999999998 84.07000000000001 8.104999999999999 84.35000000000001 7.707999999999998 L 84.35000000000001 7.707999999999998 L 84.986 8.418 C 84.64200000000001 8.883999999999999 84.211 9.228 83.69200000000001 9.447 C 83.171 9.674 82.563 9.712 81.86800000000001 9.562 z M 83.369 2.639 L 83.369 2.639 C 82.766 2.508 82.259 2.5959999999999996 81.845 2.901 C 81.432 3.207 81.146 3.727 80.987 4.462 L 80.987 4.462 L 80.94399999999999 4.661 L 84.579 5.449 L 84.622 5.25 C 84.945 3.76 84.527 2.89 83.369 2.639 z" stroke-linecap="round" />
</g>
		<g transform="matrix(1 0 0 1 26.64 -60.27)" id="text-0"  >
<path style="stroke: none; stroke-width: 1; stroke-dasharray: none; stroke-linecap: butt; stroke-dashoffset: 0; stroke-linejoin: miter; stroke-miterlimit: 4; fill: rgb(0,0,0); fill-rule: nonzero; opacity: 1;" vector-effect="non-scaling-stroke"  transform=" translate(-95.13, -8.23)" d="M 90.506 12.022 L 94.643 2.505000000000001 L 98.25 4.073 C 98.965 4.384 99.427 4.825 99.636 5.396000000000001 C 99.85199999999999 5.970000000000001 99.78 6.670000000000001 99.42099999999999 7.497000000000001 L 99.42099999999999 7.497000000000001 C 99.25399999999999 7.882000000000001 99.06899999999999 8.179 98.868 8.387 C 98.667 8.595 98.46499999999999 8.744 98.264 8.833 C 98.056 8.92 97.84899999999999 8.963000000000001 97.643 8.962 C 97.437 8.961 97.251 8.927999999999999 97.087 8.865 L 97.087 8.865 L 97.026 9.004 C 97.188 9.074 97.356 9.187999999999999 97.532 9.346 C 97.707 9.503 97.84899999999999 9.705 97.956 9.951 C 98.057 10.194 98.10900000000001 10.483 98.111 10.817 C 98.116 11.144 98.02900000000001 11.516 97.848 11.933 L 97.848 11.933 C 97.467 12.809 96.971 13.399 96.359 13.701 C 95.75099999999999 14.013 95.12299999999999 14.028 94.47699999999999 13.747 L 94.47699999999999 13.747 z M 93.529 8.05 L 92.00999999999999 11.545000000000002 L 94.564 12.655000000000001 C 94.999 12.844000000000001 95.38 12.869000000000002 95.70599999999999 12.73 C 96.02999999999999 12.597000000000001 96.29799999999999 12.286 96.511 11.795 L 96.511 11.795 L 96.783 11.17 C 96.996 10.679 97.043 10.267 96.921 9.934 C 96.79700000000001 9.607 96.518 9.349 96.08300000000001 9.16 L 96.08300000000001 9.16 z M 95.32 3.93 L 93.943 7.099 L 96.319 8.132 C 96.71000000000001 8.302 97.056 8.331 97.357 8.217 C 97.651 8.101 97.893 7.8260000000000005 98.082 7.391000000000001 L 98.082 7.391000000000001 L 98.35799999999999 6.757000000000001 C 98.54699999999998 6.322000000000001 98.58399999999999 5.957000000000001 98.46699999999998 5.664000000000001 C 98.34499999999998 5.367000000000001 98.08799999999998 5.134 97.69699999999999 4.963000000000001 L 97.69699999999999 4.963000000000001 z" stroke-linecap="round" />
</g>
		<g transform="matrix(1 0 0 1 34.35 -54.45)" id="text-0"  >
<path style="stroke: none; stroke-width: 1; stroke-dasharray: none; stroke-linecap: butt; stroke-dashoffset: 0; stroke-linejoin: miter; stroke-miterlimit: 4; fill: rgb(0,0,0); fill-rule: nonzero; opacity: 1;" vector-effect="non-scaling-stroke"  transform=" translate(-102.84, -14.04)" d="M 100.714 17.451 L 100.714 17.451 C 100.334 17.215 100.02 16.931 99.771 16.601 C 99.522 16.27 99.367 15.890999999999998 99.307 15.462 C 99.24300000000001 15.039 99.275 14.572 99.402 14.06 C 99.538 13.546000000000001 99.795 12.987 100.171 12.384 L 100.171 12.384 C 100.551 11.774000000000001 100.93900000000001 11.298 101.33600000000001 10.954 C 101.74300000000001 10.609 102.15 10.371 102.558 10.243 C 102.96900000000001 10.108 103.376 10.082 103.77900000000001 10.165000000000001 C 104.186 10.243 104.57900000000001 10.4 104.95900000000002 10.637 L 104.95900000000002 10.637 C 105.33300000000001 10.870000000000001 105.64700000000002 11.153 105.90100000000001 11.487 C 106.15400000000001 11.812 106.31000000000002 12.189 106.37100000000001 12.618 C 106.435 13.041 106.39900000000002 13.509 106.26200000000001 14.023 C 106.12900000000002 14.530999999999999 105.87300000000002 15.09 105.49300000000001 15.699 L 105.49300000000001 15.699 C 105.117 16.303 104.72800000000001 16.779 104.32700000000001 17.128 C 103.93 17.471 103.52700000000002 17.707 103.12000000000002 17.837 C 102.70900000000002 17.972 102.30000000000003 18.001 101.89300000000001 17.923 C 101.48100000000001 17.842 101.08800000000001 17.685 100.71400000000001 17.450999999999997 z M 101.251 16.589 L 101.251 16.589 C 101.769 16.910999999999998 102.265 17.005 102.74000000000001 16.869999999999997 C 103.215 16.734999999999996 103.65200000000002 16.348 104.05000000000001 15.709999999999997 L 104.05000000000001 15.709999999999997 L 104.87200000000001 14.389999999999997 C 105.27000000000001 13.751999999999997 105.42400000000002 13.188999999999997 105.33600000000001 12.702999999999998 C 105.24800000000002 12.216999999999997 104.94500000000001 11.812999999999997 104.427 11.490999999999998 L 104.427 11.490999999999998 C 103.90400000000001 11.164999999999997 103.40400000000001 11.069999999999999 102.929 11.203999999999997 C 102.45400000000001 11.338999999999997 102.017 11.725999999999997 101.619 12.363999999999997 L 101.619 12.363999999999997 L 100.797 13.683999999999997 C 100.399 14.321999999999997 100.24499999999999 14.884999999999998 100.333 15.370999999999997 C 100.42099999999999 15.856999999999998 100.727 16.262999999999998 101.251 16.589 z" stroke-linecap="round" />
</g>
		<g transform="matrix(1 0 0 1 41.52 -49.51)" id="text-0"  >
<path style="stroke: none; stroke-width: 1; stroke-dasharray: none; stroke-linecap: butt; stroke-dashoffset: 0; stroke-linejoin: miter; stroke-miterlimit: 4; fill: rgb(0,0,0); fill-rule: nonzero; opacity: 1;" vector-effect="non-scaling-stroke"  transform=" translate(-110.02, -18.98)" d="M 108.443 22.962 L 109.23 21.991 L 109.11200000000001 21.895 C 108.703 22.174 108.30000000000001 22.305 107.903 22.288999999999998 C 107.507 22.281999999999996 107.102 22.11 106.686 21.772999999999996 L 106.686 21.772999999999996 C 106.155 21.341999999999995 105.88600000000001 20.822999999999997 105.88000000000001 20.216999999999995 C 105.86900000000001 19.605999999999995 106.16900000000001 18.924999999999994 106.78000000000002 18.171999999999997 L 106.78000000000002 18.171999999999997 L 109.92900000000002 14.287999999999997 L 110.80600000000001 14.998999999999997 L 107.70700000000001 18.818999999999996 C 107.319 19.297999999999995 107.11900000000001 19.742999999999995 107.10900000000001 20.152999999999995 C 107.10000000000001 20.572999999999997 107.298 20.946999999999996 107.703 21.275999999999996 L 107.703 21.275999999999996 C 108.056 21.561999999999998 108.443 21.696999999999996 108.866 21.682999999999996 C 109.288 21.667999999999996 109.66 21.462999999999997 109.979 21.067999999999998 L 109.979 21.067999999999998 L 113.276 17.002999999999997 L 114.152 17.713999999999995 L 109.319 23.672999999999995 z" stroke-linecap="round" />
</g>
		<g transform="matrix(1 0 0 1 47.08 -45.07)" id="text-0"  >
<path style="stroke: none; stroke-width: 1; stroke-dasharray: none; stroke-linecap: butt; stroke-dashoffset: 0; stroke-linejoin: miter; stroke-miterlimit: 4; fill: rgb(0,0,0); fill-rule: nonzero; opacity: 1;" vector-effect="non-scaling-stroke"  transform=" translate(-115.57, -23.42)" d="M 113.235 27.703 L 112.274 26.71 C 111.991 26.418 111.852 26.143 111.856 25.884 C 111.86 25.625 112.008 25.355 112.3 25.071 L 112.3 25.071 L 116.264 21.232000000000003 L 115.479 20.422000000000004 L 116.195 19.729000000000003 L 116.66199999999999 20.211000000000002 C 116.82199999999999 20.376 116.967 20.444000000000003 117.097 20.412000000000003 C 117.232 20.385 117.37899999999999 20.294000000000004 117.53999999999999 20.139000000000003 L 117.53999999999999 20.139000000000003 L 118.56899999999999 19.142000000000003 L 119.28299999999999 19.879 L 117.76499999999999 21.35 L 118.80399999999999 22.423000000000002 L 118.088 23.116000000000003 L 117.04899999999999 22.043000000000003 L 112.96799999999999 25.995000000000005 L 113.951 27.010000000000005 z" stroke-linecap="round" />
</g>
		<g transform="matrix(1 0 0 1 50.81 -41.99)" id="text-0"  >
<path style="stroke: none; stroke-width: 1; stroke-dasharray: none; stroke-linecap: butt; stroke-dashoffset: 0; stroke-linejoin: miter; stroke-miterlimit: 4; fill: rgb(0,0,0); fill-rule: nonzero; opacity: 1;" vector-effect="non-scaling-stroke"  transform=" translate(-119.31, -26.5)" d="M 122.468 23.84 L 122.468 23.84 C 122.167 23.482 122.172 23.173 122.483 22.911 L 122.483 22.911 L 122.661 22.76 C 122.97200000000001 22.498 123.278 22.546000000000003 123.57900000000001 22.904 L 123.57900000000001 22.904 C 123.88000000000001 23.262 123.87500000000001 23.571 123.56500000000001 23.833 L 123.56500000000001 23.833 L 123.38600000000001 23.983999999999998 C 123.075 24.246 122.769 24.197999999999997 122.468 23.84 z M 114.809 29.545 L 120.679 24.603 L 121.405 25.466 L 115.536 30.408 z" stroke-linecap="round" />
</g>
		<g transform="matrix(1 0 0 1 53.4 -34.54)" id="text-0"  >
<path style="stroke: none; stroke-width: 1; stroke-dasharray: none; stroke-linecap: butt; stroke-dashoffset: 0; stroke-linejoin: miter; stroke-miterlimit: 4; fill: rgb(0,0,0); fill-rule: nonzero; opacity: 1;" vector-effect="non-scaling-stroke"  transform=" translate(-121.89, -33.96)" d="M 117.173 37.948 L 120.669 35.571 L 120.589 35.452999999999996 C 120.085 35.614999999999995 119.647 35.62199999999999 119.276 35.474 C 118.904 35.324999999999996 118.583 35.052 118.313 34.653999999999996 L 118.313 34.653999999999996 C 118.058 34.278999999999996 117.911 33.894999999999996 117.87400000000001 33.501999999999995 C 117.837 33.10999999999999 117.894 32.717999999999996 118.046 32.327999999999996 C 118.19500000000001 31.931999999999995 118.444 31.544999999999995 118.79400000000001 31.167999999999996 C 119.13400000000001 30.788999999999994 119.55700000000002 30.427999999999997 120.061 30.084999999999997 L 120.061 30.084999999999997 C 120.57100000000001 29.737999999999996 121.06500000000001 29.476 121.542 29.298999999999996 C 122.016 29.115999999999996 122.467 29.025999999999996 122.895 29.029999999999998 C 123.314 29.031999999999996 123.699 29.121999999999996 124.051 29.301999999999996 C 124.397 29.484999999999996 124.697 29.763999999999996 124.952 30.138999999999996 L 124.952 30.138999999999996 C 125.223 30.536999999999995 125.359 30.935999999999996 125.36 31.335999999999995 C 125.367 31.731999999999996 125.203 32.135 124.867 32.544 L 124.867 32.544 L 124.947 32.662 L 125.98100000000001 31.959 L 126.61500000000001 32.892 L 117.80700000000002 38.881 z M 119.347 34.368 L 119.347 34.368 C 119.47999999999999 34.564 119.636 34.733000000000004 119.814 34.874 C 119.988 35.010000000000005 120.172 35.106 120.36699999999999 35.162 C 120.55699999999999 35.213 120.755 35.226 120.95899999999999 35.202 C 121.15799999999999 35.181 121.347 35.11 121.52599999999998 34.988 L 121.52599999999998 34.988 L 124.08999999999997 33.245 C 124.26899999999998 33.123 124.40499999999997 32.973 124.49699999999997 32.796 C 124.58899999999997 32.619 124.64699999999998 32.432 124.66999999999997 32.236 C 124.68899999999998 32.035 124.66999999999997 31.825999999999997 124.61299999999997 31.610999999999997 C 124.54699999999997 31.394 124.44699999999997 31.186999999999998 124.31399999999996 30.990999999999996 L 124.31399999999996 30.990999999999996 C 123.96299999999997 30.475999999999996 123.53399999999996 30.193999999999996 123.02699999999996 30.144999999999996 C 122.51499999999996 30.090999999999998 121.97099999999996 30.260999999999996 121.39399999999996 30.653999999999996 L 121.39399999999996 30.653999999999996 L 120.10799999999996 31.527999999999995 C 119.52499999999996 31.923999999999996 119.16799999999996 32.367999999999995 119.03499999999997 32.85999999999999 C 118.89299999999997 33.349999999999994 118.99699999999997 33.852999999999994 119.34699999999997 34.367999999999995 z" stroke-linecap="round" />
</g>
		<g transform="matrix(1 0 0 1 57.91 -28.3)" id="text-0"  >
<path style="stroke: none; stroke-width: 1; stroke-dasharray: none; stroke-linecap: butt; stroke-dashoffset: 0; stroke-linejoin: miter; stroke-miterlimit: 4; fill: rgb(0,0,0); fill-rule: nonzero; opacity: 1;" vector-effect="non-scaling-stroke"  transform=" translate(-126.41, -40.19)" d="M 123.411 43.335 L 124.528 42.773 L 124.459 42.637 C 123.971 42.723 123.55 42.677 123.19500000000001 42.499 C 122.837 42.330000000000005 122.53800000000001 42.007000000000005 122.29700000000001 41.529 L 122.29700000000001 41.529 C 121.989 40.918000000000006 121.95800000000001 40.335 122.20200000000001 39.779 C 122.44300000000001 39.218 122.99600000000001 38.719 123.86100000000002 38.284000000000006 L 123.86100000000002 38.284000000000006 L 128.32800000000003 36.03600000000001 L 128.83500000000004 37.04400000000001 L 124.44100000000003 39.25500000000001 C 123.89000000000003 39.53200000000001 123.52600000000002 39.85600000000001 123.34800000000003 40.226000000000006 C 123.16700000000003 40.605000000000004 123.19400000000003 41.028000000000006 123.42900000000003 41.49400000000001 L 123.42900000000003 41.49400000000001 C 123.63300000000002 41.900000000000006 123.93100000000003 42.18200000000001 124.32200000000003 42.342000000000006 C 124.71300000000004 42.502 125.13600000000002 42.467000000000006 125.59000000000003 42.23800000000001 L 125.59000000000003 42.23800000000001 L 130.26500000000004 39.88600000000001 L 130.77200000000005 40.89300000000001 L 123.91800000000005 44.34300000000001 z" stroke-linecap="round" />
</g>
		<g transform="matrix(1 0 0 1 60.77 -20.41)" id="text-0"  >
<path style="stroke: none; stroke-width: 1; stroke-dasharray: none; stroke-linecap: butt; stroke-dashoffset: 0; stroke-linejoin: miter; stroke-miterlimit: 4; fill: rgb(0,0,0); fill-rule: nonzero; opacity: 1;" vector-effect="non-scaling-stroke"  transform=" translate(-129.27, -48.08)" d="M 125.47 49.353 L 125.47 49.353 C 125.326 48.93 125.262 48.511 125.279 48.098 C 125.29599999999999 47.684 125.417 47.293 125.642 46.923 C 125.86 46.555 126.181 46.214 126.603 45.898 C 127.03399999999999 45.587 127.586 45.317 128.259 45.087 L 128.259 45.087 C 128.939 44.856 129.541 44.733000000000004 130.06599999999997 44.719 C 130.59899999999996 44.709 131.06499999999997 44.784 131.46299999999997 44.942 C 131.86699999999996 45.098 132.19799999999998 45.336 132.45699999999997 45.656 C 132.72299999999996 45.974 132.92699999999996 46.344 133.07099999999997 46.766999999999996 L 133.07099999999997 46.766999999999996 C 133.21299999999997 47.184 133.27299999999997 47.592999999999996 133.25199999999998 47.99399999999999 C 133.237 48.392999999999994 133.11399999999998 48.766999999999996 132.88299999999998 49.117999999999995 C 132.658 49.465999999999994 132.32799999999997 49.78999999999999 131.89299999999997 50.087999999999994 C 131.46599999999998 50.39099999999999 130.91299999999998 50.657999999999994 130.23299999999998 50.888999999999996 L 130.23299999999998 50.888999999999996 L 129.97299999999998 50.977 L 128.386 46.31099999999999 L 127.914 46.47099999999999 C 127.202 46.71299999999999 126.725 47.05799999999999 126.484 47.50499999999999 C 126.24 47.94599999999999 126.217 48.45499999999999 126.413 49.03199999999999 L 126.413 49.03199999999999 C 126.579 49.51899999999999 126.82 49.880999999999986 127.137 50.11799999999999 C 127.453 50.353999999999985 127.854 50.48999999999999 128.338 50.524999999999984 L 128.338 50.524999999999984 L 128.057 51.435999999999986 C 127.47999999999999 51.381999999999984 126.96399999999998 51.188999999999986 126.50799999999998 50.856999999999985 C 126.04499999999999 50.527999999999984 125.69899999999998 50.02599999999998 125.46999999999998 49.35299999999999 z M 132.176 47.072 L 132.176 47.072 C 131.97699999999998 46.488 131.641 46.098000000000006 131.166 45.902 C 130.691 45.706 130.09799999999998 45.729 129.386 45.971000000000004 L 129.386 45.971000000000004 L 129.194 46.036 L 130.392 49.558 L 130.584 49.492 C 132.02700000000002 49.001 132.558 48.193999999999996 132.17600000000002 47.071999999999996 z" stroke-linecap="round" />
</g>
		<g transform="matrix(1 0 0 1 -59.15 20.85)" id="text-0"  >
<path style="stroke: none; stroke-width: 1; stroke-dasharray: none; stroke-linecap: butt; stroke-dashoffset: 0; stroke-linejoin: miter; stroke-miterlimit: 4; fill: rgb(0,0,0); fill-rule: nonzero; opacity: 1;" vector-effect="non-scaling-stroke"  transform=" translate(-9.34, -89.34)" d="M 5.209 92.97 L 6.58 92.519 L 6.535 92.384 C 6.057 92.427 5.607 92.294 5.184 91.984 C 4.757000000000001 91.68199999999999 4.424 91.17099999999999 4.187 90.44999999999999 L 4.187 90.44999999999999 C 4.009 89.90899999999999 3.9510000000000005 89.386 4.0120000000000005 88.88099999999999 C 4.065 88.37099999999998 4.2490000000000006 87.88999999999999 4.564 87.43699999999998 C 4.874 86.99199999999999 5.322 86.57699999999998 5.909 86.19199999999998 C 6.502 85.80399999999997 7.236 85.46599999999998 8.111 85.17799999999998 L 8.111 85.17799999999998 C 9.868 84.59899999999999 11.263000000000002 84.50399999999998 12.296 84.89099999999998 C 13.338 85.28299999999997 14.056 86.07699999999997 14.45 87.27399999999997 L 14.45 87.27399999999997 C 14.734 88.13599999999997 14.774999999999999 88.88999999999997 14.574 89.53399999999998 C 14.37 90.17199999999998 13.991999999999999 90.74599999999998 13.44 91.25499999999998 L 13.44 91.25499999999998 L 12.571 90.50299999999999 C 13.024 90.14699999999999 13.331999999999999 89.72799999999998 13.495 89.24699999999999 C 13.664 88.76299999999999 13.648 88.21599999999998 13.446 87.60399999999998 L 13.446 87.60399999999998 C 13.174999999999999 86.77999999999999 12.697 86.23899999999999 12.013 85.97899999999998 C 11.326 85.71299999999998 10.526 85.72999999999999 9.612 86.03199999999998 L 9.612 86.03199999999998 L 7.401 86.75999999999998 C 6.494 87.05899999999998 5.8389999999999995 87.51999999999998 5.439 88.14399999999998 C 5.043 88.75999999999998 4.98 89.47899999999997 5.251 90.30299999999998 L 5.251 90.30299999999998 C 5.355 90.61799999999998 5.503 90.90499999999999 5.694 91.16299999999998 C 5.886 91.42099999999998 6.107 91.62599999999998 6.357 91.77899999999998 C 6.611000000000001 91.92299999999999 6.891 92.01299999999998 7.195 92.04899999999998 C 7.508 92.08899999999998 7.835 92.05199999999998 8.176 91.93999999999998 L 8.176 91.93999999999998 L 9.247 91.58699999999999 L 8.605 89.63699999999999 L 9.59 89.31299999999999 L 10.594 92.36299999999999 L 5.555999999999999 94.02299999999998 z" stroke-linecap="round" />
</g>
		<g transform="matrix(1 0 0 1 -57.26 27.52)" id="text-0"  >
<path style="stroke: none; stroke-width: 1; stroke-dasharray: none; stroke-linecap: butt; stroke-dashoffset: 0; stroke-linejoin: miter; stroke-miterlimit: 4; fill: rgb(0,0,0); fill-rule: nonzero; opacity: 1;" vector-effect="non-scaling-stroke"  transform=" translate(-11.23, -96.02)" d="M 7.48 98.181 L 6.993 97.163 L 13.915 93.852 L 14.402 94.87 L 13.109 95.488 L 13.175 95.626 C 13.634 95.549 14.047 95.596 14.414000000000001 95.765 C 14.775000000000002 95.938 15.065000000000001 96.254 15.283000000000001 96.713 L 15.283000000000001 96.713 L 15.463000000000001 97.088 L 14.427000000000001 97.58399999999999 L 14.107000000000001 96.91499999999999 C 13.876000000000001 96.43199999999999 13.588000000000001 96.10399999999998 13.242 95.931 C 12.897 95.758 12.510000000000002 95.774 12.082 95.979 L 12.082 95.979 z" stroke-linecap="round" />
</g>
		<g transform="matrix(1 0 0 1 -53.97 34.38)" id="text-0"  >
<path style="stroke: none; stroke-width: 1; stroke-dasharray: none; stroke-linecap: butt; stroke-dashoffset: 0; stroke-linejoin: miter; stroke-miterlimit: 4; fill: rgb(0,0,0); fill-rule: nonzero; opacity: 1;" vector-effect="non-scaling-stroke"  transform=" translate(-14.52, -102.87)" d="M 11.124 104.98 L 11.124 104.98 C 10.888 104.60000000000001 10.731 104.20700000000001 10.654 103.8 C 10.577 103.393 10.606 102.984 10.741 102.573 C 10.87 102.16499999999999 11.105 101.75999999999999 11.445 101.35799999999999 C 11.794 100.957 12.271 100.56899999999999 12.875 100.19299999999998 L 12.875 100.19299999999998 C 13.485 99.81399999999998 14.044 99.55799999999998 14.552 99.42499999999998 C 15.068999999999999 99.29499999999999 15.54 99.26199999999999 15.962 99.32599999999998 C 16.391 99.38699999999999 16.767 99.54299999999998 17.092 99.79599999999998 C 17.423 100.04499999999997 17.706 100.35999999999997 17.942 100.73999999999998 L 17.942 100.73999999999998 C 18.175 101.11399999999998 18.326 101.49899999999998 18.396 101.89299999999999 C 18.472 102.28499999999998 18.437 102.67699999999999 18.291 103.07199999999999 C 18.151 103.46199999999999 17.903 103.85199999999999 17.547 104.24099999999999 C 17.2 104.63199999999999 16.722 105.01799999999999 16.111 105.39699999999999 L 16.111 105.39699999999999 L 15.878 105.54199999999999 L 13.275 101.356 L 12.852 101.619 C 12.213000000000001 102.016 11.827 102.46 11.693 102.95 C 11.555 103.434 11.648 103.936 11.969999999999999 104.45400000000001 L 11.969999999999999 104.45400000000001 C 12.241999999999999 104.891 12.559 105.18900000000001 12.921 105.34700000000001 C 13.283 105.50500000000001 13.703 105.54700000000001 14.183 105.471 L 14.183 105.471 L 14.116 106.422 C 13.542 106.5 12.995 106.429 12.475999999999999 106.21 C 11.950999999999999 105.994 11.5 105.58399999999999 11.123999999999999 104.97999999999999 z M 17.14 101.239 L 17.14 101.239 C 16.814 100.715 16.398 100.412 15.891 100.328 C 15.384 100.244 14.811 100.401 14.173 100.798 L 14.173 100.798 L 14 100.905 L 15.964 104.06400000000001 L 16.137 103.95700000000001 C 17.432000000000002 103.152 17.766000000000002 102.24600000000001 17.14 101.239 z" stroke-linecap="round" />
</g>
		<g transform="matrix(1 0 0 1 -49.11 41.02)" id="text-0"  >
<path style="stroke: none; stroke-width: 1; stroke-dasharray: none; stroke-linecap: butt; stroke-dashoffset: 0; stroke-linejoin: miter; stroke-miterlimit: 4; fill: rgb(0,0,0); fill-rule: nonzero; opacity: 1;" vector-effect="non-scaling-stroke"  transform=" translate(-19.38, -109.51)" d="M 16.286 112.046 L 16.286 112.046 C 16.003 111.7 15.797 111.33000000000001 15.668000000000001 110.93700000000001 C 15.539000000000001 110.54400000000001 15.515 110.13400000000001 15.597000000000001 109.70900000000002 C 15.673000000000002 109.28800000000001 15.854000000000001 108.85600000000002 16.139000000000003 108.41300000000001 C 16.434000000000005 107.97100000000002 16.857000000000003 107.525 17.407000000000004 107.07400000000001 L 17.407000000000004 107.07400000000001 C 17.963000000000005 106.62000000000002 18.485000000000003 106.29400000000001 18.972000000000005 106.09800000000001 C 19.468000000000004 105.90200000000002 19.930000000000003 105.80900000000001 20.358000000000004 105.81800000000001 C 20.791000000000004 105.82300000000001 21.185000000000002 105.93 21.539000000000005 106.14000000000001 C 21.899000000000004 106.34500000000001 22.220000000000006 106.62000000000002 22.503000000000004 106.96600000000001 L 22.503000000000004 106.96600000000001 C 22.782000000000004 107.307 22.981000000000005 107.66900000000001 23.102000000000004 108.052 C 23.228000000000005 108.43100000000001 23.243000000000002 108.825 23.149000000000004 109.23400000000001 C 23.060000000000006 109.63900000000001 22.864000000000004 110.058 22.560000000000006 110.489 C 22.266000000000005 110.92200000000001 21.841000000000005 111.36500000000001 21.285000000000007 111.82000000000001 L 21.285000000000007 111.82000000000001 L 21.073000000000008 111.99400000000001 L 17.954000000000008 108.17700000000002 L 17.56800000000001 108.49200000000002 C 16.986000000000008 108.96800000000002 16.660000000000007 109.45800000000001 16.590000000000007 109.96100000000001 C 16.516000000000005 110.45900000000002 16.672000000000008 110.94400000000002 17.057000000000006 111.41600000000001 L 17.057000000000006 111.41600000000001 C 17.383000000000006 111.81500000000001 17.735000000000007 112.06900000000002 18.114000000000004 112.18 C 18.493000000000006 112.29 18.916000000000004 112.278 19.382000000000005 112.141 L 19.382000000000005 112.141 L 19.438000000000006 113.093 C 18.879000000000005 113.244 18.327000000000005 113.244 17.784000000000006 113.093 C 17.235000000000007 112.946 16.736000000000004 112.598 16.286000000000005 112.046 z M 21.771 107.564 L 21.771 107.564 C 21.381 107.08699999999999 20.929000000000002 106.839 20.416 106.821 C 19.903 106.803 19.355 107.032 18.772000000000002 107.508 L 18.772000000000002 107.508 L 18.615000000000002 107.637 L 20.969 110.517 L 21.126 110.38799999999999 C 22.306 109.42299999999999 22.522000000000002 108.48199999999999 21.771 107.564 z" stroke-linecap="round" />
</g>
		<g transform="matrix(1 0 0 1 -43.75 47.06)" id="text-0"  >
<path style="stroke: none; stroke-width: 1; stroke-dasharray: none; stroke-linecap: butt; stroke-dashoffset: 0; stroke-linejoin: miter; stroke-miterlimit: 4; fill: rgb(0,0,0); fill-rule: nonzero; opacity: 1;" vector-effect="non-scaling-stroke"  transform=" translate(-24.74, -115.55)" d="M 21.33 117.228 L 20.514 116.449 L 25.811 110.898 L 26.627 111.67699999999999 L 25.764 112.58099999999999 L 25.875 112.68699999999998 C 26.31 112.44699999999999 26.723 112.34899999999999 27.111 112.39199999999998 C 27.5 112.43599999999998 27.888 112.64199999999998 28.276 113.01199999999999 L 28.276 113.01199999999999 C 28.771 113.48399999999998 29.002 114.02299999999998 28.968 114.62699999999998 C 28.929 115.23699999999998 28.576 115.89199999999998 27.906 116.59299999999998 L 27.906 116.59299999999998 L 24.454 120.20999999999998 L 23.631 119.42399999999998 L 27.027 115.86599999999999 C 27.453 115.41999999999999 27.687 114.99299999999998 27.73 114.58399999999999 C 27.773 114.17599999999999 27.604 113.78899999999999 27.222 113.42399999999999 L 27.222 113.42399999999999 C 26.894000000000002 113.11099999999999 26.521 112.942 26.103 112.91799999999999 C 25.681 112.89899999999999 25.294 113.073 24.943 113.442 L 24.943 113.442 z" stroke-linecap="round" />
</g>
		<g transform="matrix(1 0 0 1 -35.74 51.44)" id="text-0"  >
<path style="stroke: none; stroke-width: 1; stroke-dasharray: none; stroke-linecap: butt; stroke-dashoffset: 0; stroke-linejoin: miter; stroke-miterlimit: 4; fill: rgb(0,0,0); fill-rule: nonzero; opacity: 1;" vector-effect="non-scaling-stroke"  transform=" translate(-32.76, -119.93)" d="M 32.039 125.817 L 27.388 122.44999999999999 L 33.473 114.04399999999998 L 38.123999999999995 117.41199999999998 L 37.516 118.25099999999998 L 33.827999999999996 115.58099999999997 L 31.735999999999997 118.47099999999998 L 35.193999999999996 120.97399999999998 L 34.58 121.82199999999997 L 31.122 119.31899999999997 L 28.959 122.30699999999997 L 32.647 124.97699999999998 z" stroke-linecap="round" />
</g>
		<g transform="matrix(1 0 0 1 -30.21 54.7)" id="text-0"  >
<path style="stroke: none; stroke-width: 1; stroke-dasharray: none; stroke-linecap: butt; stroke-dashoffset: 0; stroke-linejoin: miter; stroke-miterlimit: 4; fill: rgb(0,0,0); fill-rule: nonzero; opacity: 1;" vector-effect="non-scaling-stroke"  transform=" translate(-38.28, -123.19)" d="M 36.7 128.489 L 35.888000000000005 128.025 C 35.535000000000004 127.82300000000001 35.325 127.598 35.257000000000005 127.348 C 35.18900000000001 127.098 35.25600000000001 126.797 35.458000000000006 126.444 L 35.458000000000006 126.444 L 40.345000000000006 117.89500000000001 L 41.324000000000005 118.45500000000001 L 36.35600000000001 127.14500000000001 L 37.19400000000001 127.62500000000001 z" stroke-linecap="round" />
</g>
		<g transform="matrix(1 0 0 1 -25.31 58.78)" id="text-0"  >
<path style="stroke: none; stroke-width: 1; stroke-dasharray: none; stroke-linecap: butt; stroke-dashoffset: 0; stroke-linejoin: miter; stroke-miterlimit: 4; fill: rgb(0,0,0); fill-rule: nonzero; opacity: 1;" vector-effect="non-scaling-stroke"  transform=" translate(-43.18, -127.27)" d="M 41.612 130.94 L 41.612 130.94 C 41.203 130.759 40.852000000000004 130.522 40.559000000000005 130.22899999999998 C 40.266000000000005 129.93599999999998 40.06 129.582 39.940000000000005 129.166 C 39.818000000000005 128.756 39.784000000000006 128.289 39.83800000000001 127.765 C 39.90100000000001 127.237 40.077000000000005 126.648 40.36500000000001 125.998 L 40.36500000000001 125.998 C 40.656000000000006 125.34100000000001 40.97400000000001 124.815 41.31900000000001 124.42 C 41.67300000000001 124.021 42.043000000000006 123.729 42.42900000000001 123.544 C 42.81700000000001 123.353 43.217000000000006 123.27 43.62800000000001 123.297 C 44.041000000000004 123.317 44.45300000000001 123.41799999999999 44.861000000000004 123.598 L 44.861000000000004 123.598 C 45.264 123.776 45.605000000000004 124.009 45.886 124.29599999999999 C 46.169000000000004 124.577 46.361000000000004 124.92099999999999 46.462 125.329 C 46.566 125.731 46.580000000000005 126.193 46.505 126.71499999999999 C 46.438 127.234 46.260000000000005 127.82199999999999 45.969 128.47799999999998 L 45.969 128.47799999999998 L 45.858000000000004 128.72899999999998 L 41.35 126.73399999999998 L 41.149 127.18999999999998 C 40.845 127.87799999999999 40.775 128.462 40.94 128.94199999999998 C 41.099 129.42 41.457 129.78199999999998 42.015 130.02899999999997 L 42.015 130.02899999999997 C 42.486 130.23699999999997 42.915 130.30499999999998 43.303 130.23299999999998 C 43.690999999999995 130.15999999999997 44.062 129.95799999999997 44.416 129.62499999999997 L 44.416 129.62499999999997 L 44.895999999999994 130.44899999999998 C 44.464999999999996 130.83599999999998 43.97299999999999 131.08499999999998 43.42099999999999 131.196 C 42.864999999999995 131.313 42.26199999999999 131.228 41.611999999999995 130.94 z M 44.479 124.462 L 44.479 124.462 C 43.915 124.212 43.4 124.196 42.934 124.412 C 42.467999999999996 124.628 42.083 125.08000000000001 41.778 125.768 L 41.778 125.768 L 41.696 125.95400000000001 L 45.096999999999994 127.459 L 45.17999999999999 127.273 C 45.79699999999999 125.87899999999999 45.562999999999995 124.942 44.47899999999999 124.46199999999999 z" stroke-linecap="round" />
</g>
		<g transform="matrix(1 0 0 1 -17.69 62.93)" id="text-0"  >
<path style="stroke: none; stroke-width: 1; stroke-dasharray: none; stroke-linecap: butt; stroke-dashoffset: 0; stroke-linejoin: miter; stroke-miterlimit: 4; fill: rgb(0,0,0); fill-rule: nonzero; opacity: 1;" vector-effect="non-scaling-stroke"  transform=" translate(-50.8, -131.42)" d="M 52.788 135.435 L 52.788 135.435 C 52.559 136.215 52.129 136.696 51.495999999999995 136.87800000000001 C 50.867999999999995 137.068 50.001999999999995 137.001 48.89699999999999 136.67700000000002 L 48.89699999999999 136.67700000000002 C 47.843999999999994 136.36800000000002 47.13899999999999 135.99200000000002 46.78099999999999 135.54900000000004 C 46.416999999999994 135.10300000000004 46.32199999999999 134.58500000000004 46.495999999999995 133.99300000000002 L 46.495999999999995 133.99300000000002 C 46.614 133.59000000000003 46.806999999999995 133.30400000000003 47.07599999999999 133.13600000000002 C 47.343999999999994 132.96800000000002 47.642999999999994 132.90000000000003 47.971999999999994 132.93200000000002 L 47.971999999999994 132.93200000000002 L 48.028999999999996 132.73700000000002 C 47.870999999999995 132.57800000000003 47.760999999999996 132.39700000000002 47.70099999999999 132.19600000000003 C 47.63799999999999 132.00100000000003 47.63999999999999 131.79000000000002 47.706999999999994 131.56200000000004 L 47.706999999999994 131.56200000000004 C 47.797 131.25600000000003 47.961999999999996 131.01900000000003 48.20199999999999 130.85000000000005 C 48.44199999999999 130.68000000000006 48.770999999999994 130.63200000000006 49.18699999999999 130.70400000000006 L 49.18699999999999 130.70400000000006 L 49.23299999999999 130.54800000000006 C 48.90499999999999 130.24700000000007 48.68899999999999 129.87600000000006 48.58399999999999 129.43700000000007 C 48.47999999999999 128.99700000000007 48.511999999999986 128.49100000000007 48.679999999999986 127.91900000000007 L 48.679999999999986 127.91900000000007 C 48.923999999999985 127.08700000000007 49.33699999999999 126.52300000000007 49.917999999999985 126.22700000000007 C 50.50499999999999 125.93300000000008 51.182999999999986 125.89900000000007 51.94999999999999 126.12400000000008 L 51.94999999999999 126.12400000000008 C 52.40499999999999 126.25700000000008 52.79399999999999 126.46000000000008 53.11699999999999 126.73100000000008 L 53.11699999999999 126.73100000000008 L 53.19099999999999 126.47700000000007 C 53.27299999999999 126.19700000000007 53.39399999999999 126.01400000000008 53.55399999999999 125.92700000000008 C 53.713999999999984 125.84000000000007 53.932999999999986 125.83700000000007 54.21299999999999 125.91900000000008 L 54.21299999999999 125.91900000000008 L 55.197999999999986 126.20800000000008 L 54.91699999999999 127.16300000000008 L 53.64899999999999 126.79200000000009 L 53.53199999999999 127.19100000000009 C 53.71399999999999 127.48500000000008 53.82699999999999 127.81100000000009 53.86999999999999 128.1700000000001 C 53.91099999999999 128.5350000000001 53.86499999999999 128.9450000000001 53.73199999999999 129.4000000000001 L 53.73199999999999 129.4000000000001 C 53.48599999999999 130.2390000000001 53.07299999999999 130.8060000000001 52.49099999999999 131.10100000000008 C 51.90999999999999 131.39700000000008 51.23299999999999 131.4310000000001 50.45899999999999 131.2050000000001 L 50.45899999999999 131.2050000000001 C 50.23099999999999 131.1380000000001 50.00399999999999 131.0470000000001 49.77699999999999 130.9300000000001 L 49.77699999999999 130.9300000000001 C 49.496999999999986 130.8970000000001 49.264999999999986 130.9420000000001 49.08099999999999 131.06500000000008 C 48.89499999999999 131.19400000000007 48.77699999999999 131.34300000000007 48.72799999999999 131.51200000000009 L 48.72799999999999 131.51200000000009 C 48.670999999999985 131.70700000000008 48.69699999999999 131.8700000000001 48.80699999999999 132.0010000000001 C 48.90799999999999 132.13700000000009 49.11199999999999 132.24900000000008 49.41699999999999 132.33900000000008 L 49.41699999999999 132.33900000000008 L 51.02599999999999 132.8110000000001 C 51.85199999999999 133.05300000000008 52.39799999999999 133.3930000000001 52.66499999999999 133.83200000000008 C 52.931999999999995 134.27000000000007 52.97299999999999 134.8050000000001 52.78799999999999 135.4350000000001 z M 51.754 135.206 L 51.754 135.206 C 51.849 134.881 51.82 134.60799999999998 51.666 134.386 C 51.513999999999996 134.158 51.196999999999996 133.97299999999998 50.715999999999994 133.832 L 50.715999999999994 133.832 L 48.47299999999999 133.17499999999998 C 48.22099999999999 133.21399999999997 48.02599999999999 133.302 47.88799999999999 133.43699999999998 C 47.75599999999999 133.575 47.65399999999999 133.767 47.58099999999999 134.01399999999998 L 47.58099999999999 134.01399999999998 C 47.47199999999999 134.385 47.499999999999986 134.71099999999998 47.66499999999999 134.992 C 47.82999999999999 135.273 48.16199999999999 135.487 48.66299999999999 135.634 L 48.66299999999999 135.634 L 49.60899999999999 135.91199999999998 C 50.200999999999986 136.08499999999998 50.67499999999999 136.11899999999997 51.030999999999985 136.01099999999997 C 51.386999999999986 135.90399999999997 51.627999999999986 135.63499999999996 51.753999999999984 135.20599999999996 z M 50.72 130.317 L 50.72 130.317 C 51.169 130.449 51.55 130.437 51.863 130.282 C 52.177 130.127 52.403 129.812 52.543 129.33700000000002 L 52.543 129.33700000000002 L 52.697 128.811 C 52.836000000000006 128.336 52.817 127.94600000000001 52.638000000000005 127.63900000000001 C 52.458000000000006 127.33900000000001 52.14300000000001 127.123 51.69500000000001 126.992 L 51.69500000000001 126.992 C 51.24600000000001 126.86 50.86500000000001 126.872 50.55100000000001 127.027 C 50.23500000000001 127.18900000000001 50.00800000000001 127.507 49.86900000000001 127.981 L 49.86900000000001 127.981 L 49.715 128.50799999999998 C 49.576 128.98299999999998 49.596000000000004 129.36999999999998 49.776 129.67 C 49.956 129.97 50.271 130.18599999999998 50.720000000000006 130.31699999999998 z" stroke-linecap="round" />
</g>
		<g transform="matrix(1 0 0 1 -10.18 63.33)" id="text-0"  >
<path style="stroke: none; stroke-width: 1; stroke-dasharray: none; stroke-linecap: butt; stroke-dashoffset: 0; stroke-linejoin: miter; stroke-miterlimit: 4; fill: rgb(0,0,0); fill-rule: nonzero; opacity: 1;" vector-effect="non-scaling-stroke"  transform=" translate(-58.31, -131.83)" d="M 61.15 135.992 L 60.358 135.862 C 59.635999999999996 135.744 59.333999999999996 135.323 59.452 134.601 L 59.452 134.601 L 59.477 134.451 L 59.32599999999999 134.426 C 59.12299999999999 134.867 58.834999999999994 135.17999999999998 58.461999999999996 135.36599999999999 C 58.081999999999994 135.551 57.657 135.605 57.18899999999999 135.528 L 57.18899999999999 135.528 C 56.45399999999999 135.40699999999998 55.93599999999999 135.13 55.635999999999996 134.697 C 55.336 134.263 55.245999999999995 133.686 55.364 132.963 L 55.364 132.963 C 55.479 132.261 55.805 131.74099999999999 56.340999999999994 131.404 C 56.86899999999999 131.072 57.62799999999999 130.987 58.61699999999999 131.148 L 58.61699999999999 131.148 L 59.98099999999999 131.37199999999999 L 60.11799999999999 130.54 C 60.20999999999999 129.97799999999998 60.15399999999999 129.547 59.94899999999999 129.245 C 59.73899999999999 128.936 59.36599999999999 128.738 58.83099999999999 128.65 L 58.83099999999999 128.65 C 58.389999999999986 128.578 58.01899999999999 128.61700000000002 57.71999999999999 128.767 C 57.41499999999999 128.909 57.13599999999999 129.14499999999998 56.88399999999999 129.474 L 56.88399999999999 129.474 L 56.321999999999996 128.754 C 56.590999999999994 128.37199999999999 56.961 128.07899999999998 57.434 127.87499999999999 C 57.907999999999994 127.66399999999999 58.439 127.60699999999999 59.027 127.70399999999998 L 59.027 127.70399999999998 C 59.89 127.84499999999998 60.507 128.159 60.881 128.646 C 61.261 129.134 61.384 129.78599999999997 61.251 130.60199999999998 L 61.251 130.60199999999998 L 60.549 134.884 L 61.311 135.009 z M 57.629 134.601 L 57.629 134.601 C 57.882999999999996 134.643 58.128 134.638 58.363 134.588 C 58.598 134.537 58.804 134.451 58.982 134.329 C 59.165 134.215 59.315 134.07500000000002 59.432 133.90800000000002 C 59.549 133.74200000000002 59.623000000000005 133.562 59.654 133.36800000000002 L 59.654 133.36800000000002 L 59.842000000000006 132.22500000000002 L 58.44800000000001 131.996 C 57.86000000000001 131.9 57.41600000000001 131.92600000000002 57.11600000000001 132.077 C 56.81700000000001 132.227 56.63600000000001 132.489 56.57500000000001 132.863 L 56.57500000000001 132.863 L 56.50800000000001 133.274 C 56.44600000000001 133.655 56.51700000000001 133.955 56.72100000000001 134.174 C 56.92500000000001 134.393 57.22800000000001 134.535 57.62900000000001 134.601 z" stroke-linecap="round" />
</g>
		<g transform="matrix(1 0 0 1 -1.64 63.95)" id="text-0"  >
<path style="stroke: none; stroke-width: 1; stroke-dasharray: none; stroke-linecap: butt; stroke-dashoffset: 0; stroke-linejoin: miter; stroke-miterlimit: 4; fill: rgb(0,0,0); fill-rule: nonzero; opacity: 1;" vector-effect="non-scaling-stroke"  transform=" translate(-66.85, -132.44)" d="M 65.15 136.226 L 64.022 136.179 L 64.34700000000001 128.512 L 65.47500000000001 128.56 L 65.42200000000001 129.809 L 65.57400000000001 129.815 C 65.74300000000001 129.347 65.98800000000001 129.002 66.31000000000002 128.779 C 66.63100000000001 128.555 67.06000000000002 128.45499999999998 67.59400000000002 128.477 L 67.59400000000002 128.477 C 68.27800000000002 128.506 68.80600000000003 128.75900000000001 69.17900000000002 129.236 C 69.55200000000002 129.72 69.71800000000002 130.446 69.67700000000002 131.41299999999998 L 69.67700000000002 131.41299999999998 L 69.46500000000002 136.409 L 68.32800000000002 136.361 L 68.53600000000002 131.446 C 68.56200000000001 130.82999999999998 68.45700000000002 130.35399999999998 68.22000000000001 130.019 C 67.98300000000002 129.683 67.60100000000001 129.50400000000002 67.07300000000001 129.482 L 67.07300000000001 129.482 C 66.61900000000001 129.463 66.22800000000001 129.582 65.89800000000001 129.839 C 65.56800000000001 130.103 65.39200000000001 130.489 65.37100000000001 130.99699999999999 L 65.37100000000001 130.99699999999999 z" stroke-linecap="round" />
</g>
		<g transform="matrix(1 0 0 1 6.65 63.63)" id="text-0"  >
<path style="stroke: none; stroke-width: 1; stroke-dasharray: none; stroke-linecap: butt; stroke-dashoffset: 0; stroke-linejoin: miter; stroke-miterlimit: 4; fill: rgb(0,0,0); fill-rule: nonzero; opacity: 1;" vector-effect="non-scaling-stroke"  transform=" translate(-75.15, -132.12)" d="M 75.583 136.116 L 75.583 136.116 C 74.632 136.205 73.86 135.961 73.269 135.383 C 72.671 134.81300000000002 72.30600000000001 133.81900000000002 72.174 132.40300000000002 L 72.174 132.40300000000002 C 72.04100000000001 130.98000000000002 72.215 129.93200000000002 72.697 129.26100000000002 C 73.172 128.59100000000004 73.885 128.211 74.836 128.122 L 74.836 128.122 C 75.55799999999999 128.054 76.14699999999999 128.16600000000003 76.602 128.45700000000002 C 77.065 128.747 77.418 129.139 77.662 129.63400000000001 L 77.662 129.63400000000001 L 76.774 130.186 C 76.609 129.80700000000002 76.379 129.525 76.083 129.342 C 75.786 129.15200000000002 75.402 129.079 74.92999999999999 129.12400000000002 L 74.92999999999999 129.12400000000002 C 74.309 129.18200000000002 73.868 129.407 73.60499999999999 129.79900000000004 C 73.34199999999998 130.19100000000003 73.246 130.76100000000002 73.31499999999998 131.51000000000005 L 73.31499999999998 131.51000000000005 L 73.45999999999998 133.05800000000005 C 73.52999999999997 133.80700000000004 73.72999999999998 134.34900000000005 74.06199999999998 134.68600000000004 C 74.39299999999999 135.02300000000002 74.86899999999999 135.16200000000003 75.48899999999999 135.10400000000004 L 75.48899999999999 135.10400000000004 C 75.981 135.05800000000005 76.36899999999999 134.91300000000004 76.65299999999999 134.66800000000003 C 76.92999999999999 134.42400000000004 77.13799999999999 134.07100000000003 77.27799999999999 133.61000000000004 L 77.27799999999999 133.61000000000004 L 78.16199999999999 134.10900000000004 C 77.98199999999999 134.66300000000004 77.678 135.12100000000004 77.249 135.48000000000005 C 76.82 135.84000000000006 76.265 136.05200000000005 75.583 136.11600000000004 z" stroke-linecap="round" />
</g>
		<g transform="matrix(1 0 0 1 14.21 62.37)" id="text-0"  >
<path style="stroke: none; stroke-width: 1; stroke-dasharray: none; stroke-linecap: butt; stroke-dashoffset: 0; stroke-linejoin: miter; stroke-miterlimit: 4; fill: rgb(0,0,0); fill-rule: nonzero; opacity: 1;" vector-effect="non-scaling-stroke"  transform=" translate(-82.71, -130.86)" d="M 83.571 134.786 L 83.571 134.786 C 83.134 134.881 82.711 134.89600000000002 82.30199999999999 134.832 C 81.89299999999999 134.768 81.51799999999999 134.60299999999998 81.175 134.338 C 80.835 134.079 80.532 133.72199999999998 80.267 133.266 C 80.00699999999999 132.802 79.80199999999999 132.22299999999998 79.651 131.528 L 79.651 131.528 C 79.499 130.826 79.446 130.214 79.49199999999999 129.69 C 79.54299999999999 129.159 79.66999999999999 128.70499999999998 79.87299999999999 128.329 C 80.07399999999998 127.94600000000001 80.34799999999998 127.644 80.69599999999998 127.423 C 81.04199999999999 127.196 81.43299999999998 127.034 81.86999999999999 126.93900000000001 L 81.86999999999999 126.93900000000001 C 82.3 126.846 82.713 126.83200000000001 83.109 126.9 C 83.503 126.96000000000001 83.86099999999999 127.125 84.184 127.39500000000001 C 84.505 127.65800000000002 84.788 128.023 85.03399999999999 128.489 C 85.28599999999999 128.947 85.48799999999999 129.528 85.63999999999999 130.23000000000002 L 85.63999999999999 130.23000000000002 L 85.69899999999998 130.49800000000002 L 80.88099999999999 131.54200000000003 L 80.98699999999998 132.02900000000002 C 81.14599999999999 132.76400000000004 81.43399999999998 133.27700000000002 81.85099999999998 133.568 C 82.26099999999998 133.86 82.76399999999998 133.942 83.35999999999999 133.81300000000002 L 83.35999999999999 133.81300000000002 C 83.86299999999999 133.704 84.24999999999999 133.50600000000003 84.51999999999998 133.21800000000002 C 84.78999999999998 132.931 84.97099999999998 132.54800000000003 85.06199999999998 132.07100000000003 L 85.06199999999998 132.07100000000003 L 85.93499999999999 132.45400000000004 C 85.81499999999998 133.02100000000004 85.56499999999998 133.51200000000003 85.18299999999999 133.92700000000005 C 84.803 134.34900000000005 84.26499999999999 134.63500000000005 83.571 134.78600000000006 z M 82.07 127.863 L 82.07 127.863 C 81.467 127.994 81.04199999999999 128.283 80.79199999999999 128.733 C 80.54299999999999 129.18200000000002 80.49799999999999 129.774 80.65699999999998 130.50900000000001 L 80.65699999999998 130.50900000000001 L 80.69999999999999 130.70800000000003 L 84.33599999999998 129.92000000000002 L 84.29299999999998 129.721 C 83.96999999999998 128.231 83.22899999999998 127.61200000000001 82.06999999999998 127.863 z" stroke-linecap="round" />
</g>
		<g transform="matrix(1 0 0 1 25.66 57.34)" id="text-0"  >
<path style="stroke: none; stroke-width: 1; stroke-dasharray: none; stroke-linecap: butt; stroke-dashoffset: 0; stroke-linejoin: miter; stroke-miterlimit: 4; fill: rgb(0,0,0); fill-rule: nonzero; opacity: 1;" vector-effect="non-scaling-stroke"  transform=" translate(-94.16, -125.83)" d="M 93.565 131.507 L 89.428 121.99000000000001 L 93.035 120.42200000000001 C 93.75 120.111 94.387 120.07400000000001 94.948 120.311 C 95.51499999999999 120.545 95.978 121.075 96.338 121.90100000000001 L 96.338 121.90100000000001 C 96.505 122.28600000000002 96.597 122.623 96.61099999999999 122.91300000000001 C 96.62599999999999 123.20200000000001 96.597 123.45100000000001 96.526 123.659 C 96.448 123.87 96.338 124.051 96.196 124.20100000000001 C 96.054 124.35100000000001 95.904 124.465 95.745 124.54100000000001 L 95.745 124.54100000000001 L 95.80600000000001 124.68100000000001 C 95.96800000000002 124.61100000000002 96.16600000000001 124.56500000000001 96.40100000000001 124.54500000000002 C 96.63600000000001 124.52400000000002 96.88000000000001 124.55900000000001 97.132 124.64800000000001 C 97.379 124.74000000000001 97.625 124.89900000000002 97.872 125.12400000000001 C 98.115 125.343 98.327 125.66100000000002 98.508 126.078 L 98.508 126.078 C 98.889 126.95400000000001 98.981 127.71900000000001 98.785 128.373 C 98.598 129.03099999999998 98.181 129.5 97.535 129.78099999999998 L 97.535 129.78099999999998 z M 92.723 126.587 L 94.242 130.082 L 96.796 128.97199999999998 C 97.23100000000001 128.783 97.509 128.522 97.63000000000001 128.188 C 97.754 127.86099999999999 97.709 127.45199999999998 97.495 126.96099999999998 L 97.495 126.96099999999998 L 97.224 126.33699999999999 C 97.01100000000001 125.84599999999999 96.741 125.53099999999999 96.414 125.392 C 96.09 125.259 95.711 125.288 95.276 125.47699999999999 L 95.276 125.47699999999999 z M 90.932 122.467 L 92.309 125.636 L 94.68599999999999 124.603 C 95.077 124.43299999999999 95.33399999999999 124.199 95.45599999999999 123.902 C 95.57199999999999 123.608 95.53499999999998 123.243 95.347 122.809 L 95.347 122.809 L 95.071 122.175 C 94.882 121.74 94.64 121.465 94.346 121.349 C 94.046 121.236 93.7 121.26400000000001 93.309 121.434 L 93.309 121.434 z" stroke-linecap="round" />
</g>
		<g transform="matrix(1 0 0 1 34.35 53.96)" id="text-0"  >
<path style="stroke: none; stroke-width: 1; stroke-dasharray: none; stroke-linecap: butt; stroke-dashoffset: 0; stroke-linejoin: miter; stroke-miterlimit: 4; fill: rgb(0,0,0); fill-rule: nonzero; opacity: 1;" vector-effect="non-scaling-stroke"  transform=" translate(-102.84, -122.45)" d="M 104.963 125.863 L 104.963 125.863 C 104.583 126.099 104.19 126.256 103.78399999999999 126.335 C 103.377 126.413 102.96799999999999 126.384 102.55699999999999 126.249 C 102.14899999999999 126.11999999999999 101.74399999999999 125.88499999999999 101.341 125.545 C 100.94 125.196 100.55199999999999 124.72 100.175 124.116 L 100.175 124.116 C 99.795 123.506 99.539 122.948 99.40599999999999 122.44 C 99.27499999999999 121.923 99.24199999999999 121.453 99.306 121.03 C 99.366 120.601 99.523 120.225 99.77499999999999 119.899 C 100.02399999999999 119.568 100.338 119.285 100.71799999999999 119.048 L 100.71799999999999 119.048 C 101.09199999999998 118.815 101.48499999999999 118.658 101.898 118.577 C 102.301 118.494 102.708 118.51899999999999 103.119 118.655 C 103.527 118.784 103.931 119.023 104.332 119.372 C 104.729 119.715 105.118 120.192 105.49799999999999 120.801 L 105.49799999999999 120.801 C 105.874 121.405 106.13 121.964 106.26599999999999 122.477 C 106.39899999999999 122.985 106.43299999999999 123.45 106.36999999999999 123.87400000000001 C 106.30999999999999 124.30300000000001 106.15499999999999 124.68200000000002 105.90599999999999 125.013 C 105.651 125.34700000000001 105.33699999999999 125.631 104.963 125.863 z M 104.426 125.001 L 104.426 125.001 C 104.944 124.679 105.247 124.274 105.33500000000001 123.78800000000001 C 105.423 123.302 105.269 122.74000000000001 104.87100000000001 122.10100000000001 L 104.87100000000001 122.10100000000001 L 104.049 120.78200000000001 C 103.65100000000001 120.144 103.215 119.757 102.74000000000001 119.62100000000001 C 102.26500000000001 119.486 101.76800000000001 119.58000000000001 101.25000000000001 119.90200000000002 L 101.25000000000001 119.90200000000002 C 100.72700000000002 120.22800000000001 100.42100000000002 120.63400000000001 100.33300000000001 121.12100000000001 C 100.24500000000002 121.60700000000001 100.39900000000002 122.16900000000001 100.79700000000001 122.80700000000002 L 100.79700000000001 122.80700000000002 L 101.61900000000001 124.12700000000001 C 102.01700000000001 124.76500000000001 102.45300000000002 125.15200000000002 102.92800000000001 125.287 C 103.403 125.42200000000001 103.903 125.32700000000001 104.42600000000002 125.001 z" stroke-linecap="round" />
</g>
		<g transform="matrix(1 0 0 1 41.13 48.65)" id="text-0"  >
<path style="stroke: none; stroke-width: 1; stroke-dasharray: none; stroke-linecap: butt; stroke-dashoffset: 0; stroke-linejoin: miter; stroke-miterlimit: 4; fill: rgb(0,0,0); fill-rule: nonzero; opacity: 1;" vector-effect="non-scaling-stroke"  transform=" translate(-109.62, -117.14)" d="M 113.275 119.488 L 112.488 118.518 L 112.369 118.614 C 112.557 119.072 112.602 119.49300000000001 112.505 119.878 C 112.417 120.264 112.16499999999999 120.625 111.749 120.962 L 111.749 120.962 C 111.21799999999999 121.393 110.655 121.549 110.06 121.429 C 109.46000000000001 121.313 108.855 120.879 108.245 120.127 L 108.245 120.127 L 105.095 116.244 L 105.971 115.533 L 109.07000000000001 119.353 C 109.45800000000001 119.832 109.852 120.119 110.25200000000001 120.214 C 110.66100000000002 120.31 111.06800000000001 120.193 111.47300000000001 119.864 L 111.47300000000001 119.864 C 111.82600000000001 119.578 112.03800000000001 119.227 112.11000000000001 118.811 C 112.18200000000002 118.39500000000001 112.058 117.989 111.73900000000002 117.59400000000001 L 111.73900000000002 117.59400000000001 L 108.44200000000002 113.52900000000001 L 109.31800000000003 112.81900000000002 L 114.15100000000002 118.77800000000002 z" stroke-linecap="round" />
</g>
		<g transform="matrix(1 0 0 1 45.89 43.46)" id="text-0"  >
<path style="stroke: none; stroke-width: 1; stroke-dasharray: none; stroke-linecap: butt; stroke-dashoffset: 0; stroke-linejoin: miter; stroke-miterlimit: 4; fill: rgb(0,0,0); fill-rule: nonzero; opacity: 1;" vector-effect="non-scaling-stroke"  transform=" translate(-114.38, -111.95)" d="M 118.746 114.127 L 117.785 115.11999999999999 C 117.502 115.41199999999999 117.231 115.55999999999999 116.972 115.564 C 116.713 115.568 116.43799999999999 115.42899999999999 116.146 115.14599999999999 L 116.146 115.14599999999999 L 112.182 111.30699999999999 L 111.397 112.11699999999999 L 110.682 111.42399999999999 L 111.148 110.943 C 111.30799999999999 110.77799999999999 111.371 110.63 111.335 110.501 C 111.30399999999999 110.367 111.208 110.223 111.04799999999999 110.06700000000001 L 111.04799999999999 110.06700000000001 L 110.01899999999999 109.07000000000001 L 110.73299999999999 108.33300000000001 L 112.25099999999999 109.80400000000002 L 113.291 108.73000000000002 L 114.006 109.42300000000002 L 112.967 110.49700000000001 L 117.048 114.44900000000001 L 118.031 113.43400000000001 z" stroke-linecap="round" />
</g>
		<g transform="matrix(1 0 0 1 48.42 39.49)" id="text-0"  >
<path style="stroke: none; stroke-width: 1; stroke-dasharray: none; stroke-linecap: butt; stroke-dashoffset: 0; stroke-linejoin: miter; stroke-miterlimit: 4; fill: rgb(0,0,0); fill-rule: nonzero; opacity: 1;" vector-effect="non-scaling-stroke"  transform=" translate(-116.91, -107.98)" d="M 113.752 105.313 L 113.752 105.313 C 113.451 105.671 113.145 105.718 112.83399999999999 105.456 L 112.83399999999999 105.456 L 112.65499999999999 105.306 C 112.34399999999998 105.044 112.33899999999998 104.734 112.64099999999999 104.377 L 112.64099999999999 104.377 C 112.942 104.01899999999999 113.24799999999999 103.972 113.559 104.23299999999999 L 113.559 104.23299999999999 L 113.738 104.38399999999999 C 114.049 104.64599999999999 114.054 104.95599999999999 113.752 105.31299999999999 z M 120.678 111.889 L 114.80799999999999 106.946 L 115.535 106.083 L 121.404 111.026 z" stroke-linecap="round" />
</g>
		<g transform="matrix(1 0 0 1 54.98 34.88)" id="text-0"  >
<path style="stroke: none; stroke-width: 1; stroke-dasharray: none; stroke-linecap: butt; stroke-dashoffset: 0; stroke-linejoin: miter; stroke-miterlimit: 4; fill: rgb(0,0,0); fill-rule: nonzero; opacity: 1;" vector-effect="non-scaling-stroke"  transform=" translate(-123.47, -103.37)" d="M 128.442 106.207 L 124.94600000000001 103.83 L 124.86600000000001 103.947 C 125.20200000000001 104.35600000000001 125.37000000000002 104.761 125.36800000000001 105.161 C 125.36600000000001 105.561 125.23 105.96000000000001 124.959 106.358 L 124.959 106.358 C 124.70400000000001 106.733 124.401 107.01100000000001 124.049 107.19 C 123.69800000000001 107.369 123.313 107.459 122.894 107.461 C 122.471 107.468 122.02000000000001 107.379 121.54100000000001 107.192 C 121.06300000000002 107.01499999999999 120.57300000000001 106.755 120.06800000000001 106.41199999999999 L 120.06800000000001 106.41199999999999 C 119.558 106.065 119.13300000000001 105.702 118.79200000000002 105.324 C 118.44800000000002 104.951 118.19900000000001 104.564 118.04500000000002 104.164 C 117.89300000000001 103.774 117.83500000000002 103.382 117.87200000000001 102.99 C 117.91500000000002 102.601 118.06400000000001 102.219 118.32000000000001 101.844 L 118.32000000000001 101.844 C 118.59100000000001 101.446 118.912 101.17299999999999 119.283 101.024 C 119.649 100.871 120.084 100.876 120.58800000000001 101.038 L 120.58800000000001 101.038 L 120.668 100.92099999999999 L 119.634 100.21799999999999 L 120.269 99.28499999999998 L 129.076 105.27399999999999 z M 124.313 105.501 L 124.313 105.501 C 124.446 105.305 124.546 105.098 124.61200000000001 104.881 C 124.674 104.669 124.69600000000001 104.463 124.677 104.261 C 124.65400000000001 104.065 124.59400000000001 103.877 124.49600000000001 103.696 C 124.40400000000001 103.51899999999999 124.26800000000001 103.369 124.08800000000001 103.247 L 124.08800000000001 103.247 L 121.525 101.504 C 121.346 101.382 121.15700000000001 101.311 120.95800000000001 101.29 C 120.75900000000001 101.269 120.56400000000001 101.28500000000001 120.37400000000001 101.33500000000001 C 120.18 101.391 119.99300000000001 101.486 119.813 101.61800000000001 C 119.635 101.75900000000001 119.479 101.92800000000001 119.346 102.12400000000001 L 119.346 102.12400000000001 C 118.995 102.63900000000001 118.891 103.14200000000001 119.034 103.632 C 119.17200000000001 104.128 119.53 104.571 120.107 104.964 L 120.107 104.964 L 121.392 105.838 C 121.975 106.234 122.51899999999999 106.404 123.02499999999999 106.34599999999999 C 123.53299999999999 106.29799999999999 123.96199999999999 106.01599999999999 124.31299999999999 105.50099999999999 z" stroke-linecap="round" />
</g>
		<g transform="matrix(1 0 0 1 57.63 27.46)" id="text-0"  >
<path style="stroke: none; stroke-width: 1; stroke-dasharray: none; stroke-linecap: butt; stroke-dashoffset: 0; stroke-linejoin: miter; stroke-miterlimit: 4; fill: rgb(0,0,0); fill-rule: nonzero; opacity: 1;" vector-effect="non-scaling-stroke"  transform=" translate(-126.12, -95.95)" d="M 130.264 96.606 L 129.14700000000002 96.044 L 129.079 96.181 C 129.43900000000002 96.521 129.65300000000002 96.887 129.721 97.27799999999999 C 129.799 97.666 129.717 98.09899999999999 129.477 98.577 L 129.477 98.577 C 129.169 99.188 128.72 99.56099999999999 128.129 99.696 C 127.535 99.837 126.80499999999999 99.69 125.939 99.254 L 125.939 99.254 L 121.473 97.006 L 121.98 95.999 L 126.37400000000001 98.21 C 126.92500000000001 98.487 127.40200000000002 98.58699999999999 127.80400000000002 98.509 C 128.216 98.428 128.54000000000002 98.155 128.775 97.68900000000001 L 128.775 97.68900000000001 C 128.979 97.283 129.029 96.876 128.923 96.46700000000001 C 128.818 96.058 128.53900000000002 95.73900000000002 128.085 95.51000000000002 L 128.085 95.51000000000002 L 123.41000000000001 93.15700000000002 L 123.91700000000002 92.14900000000003 L 130.77100000000002 95.59900000000003 z" stroke-linecap="round" />
</g>
		<g transform="matrix(1 0 0 1 60.79 20.01)" id="text-0"  >
<path style="stroke: none; stroke-width: 1; stroke-dasharray: none; stroke-linecap: butt; stroke-dashoffset: 0; stroke-linejoin: miter; stroke-miterlimit: 4; fill: rgb(0,0,0); fill-rule: nonzero; opacity: 1;" vector-effect="non-scaling-stroke"  transform=" translate(-129.28, -88.5)" d="M 133.079 89.728 L 133.079 89.728 C 132.935 90.151 132.73000000000002 90.52199999999999 132.465 90.839 C 132.199 91.157 131.865 91.393 131.461 91.55 C 131.06400000000002 91.708 130.601 91.78399999999999 130.07500000000002 91.776 C 129.544 91.75999999999999 128.94100000000003 91.637 128.26800000000003 91.408 L 128.26800000000003 91.408 C 127.58800000000002 91.177 127.03600000000003 90.907 126.61100000000003 90.598 C 126.18200000000003 90.28 125.85900000000004 89.938 125.64000000000003 89.57 C 125.41500000000003 89.19999999999999 125.29800000000003 88.809 125.28800000000003 88.398 C 125.27100000000003 87.984 125.33500000000002 87.566 125.47800000000002 87.142 L 125.47800000000002 87.142 C 125.62000000000002 86.725 125.82100000000003 86.36399999999999 126.08300000000003 86.059 C 126.33800000000002 85.752 126.66400000000003 85.53 127.06100000000002 85.39399999999999 C 127.45200000000003 85.255 127.91100000000002 85.19999999999999 128.437 85.22899999999998 C 128.96 85.24899999999998 129.561 85.37499999999999 130.241 85.60599999999998 L 130.241 85.60599999999998 L 130.501 85.69499999999998 L 128.91400000000002 90.36099999999998 L 129.38500000000002 90.52099999999997 C 130.097 90.76299999999998 130.68500000000003 90.78099999999998 131.14900000000003 90.57399999999997 C 131.61100000000002 90.37299999999998 131.94000000000003 89.98399999999997 132.13700000000003 89.40699999999997 L 132.13700000000003 89.40699999999997 C 132.30300000000003 88.91999999999997 132.33200000000002 88.48599999999996 132.22500000000002 88.10599999999997 C 132.11800000000002 87.72599999999997 131.883 87.37399999999997 131.52100000000002 87.05099999999996 L 131.52100000000002 87.05099999999996 L 132.299 86.49999999999996 C 132.723 86.89499999999995 133.01500000000001 87.36299999999996 133.174 87.90299999999996 C 133.34 88.44599999999997 133.308 89.05399999999996 133.079 89.72799999999997 z M 126.373 87.446 L 126.373 87.446 C 126.174 88.03 126.203 88.544 126.46000000000001 88.99 C 126.71700000000001 89.43499999999999 127.20100000000001 89.779 127.91300000000001 90.021 L 127.91300000000001 90.021 L 128.10500000000002 90.086 L 129.30300000000003 86.565 L 129.11100000000002 86.499 C 127.66800000000002 86.008 126.75500000000002 86.324 126.37300000000002 87.446 z" stroke-linecap="round" />
</g>
		<g transform="matrix(1 0 0 1 -64.04 -0.25)" id="text-0"  >
<path style="stroke: none; stroke-width: 1; stroke-dasharray: none; stroke-linecap: butt; stroke-dashoffset: 0; stroke-linejoin: miter; stroke-miterlimit: 4; fill: rgb(0,0,0); fill-rule: nonzero; opacity: 1;" vector-effect="non-scaling-stroke"  transform=" translate(-4.45, -68.25)" d="M 0.248 68.246 C 0.248 65.92399999999999 2.13 64.04299999999999 4.4510000000000005 64.04299999999999 C 6.773000000000001 64.04299999999999 8.654 65.925 8.655000000000001 68.246 C 8.655000000000001 70.568 6.7730000000000015 72.449 4.451000000000001 72.44999999999999 C 2.1290000000000013 72.44999999999999 0.2480000000000011 70.56799999999998 0.2480000000000011 68.246 z" stroke-linecap="round" />
</g>
		<g transform="matrix(1 0 0 1 64.04 -0.25)" id="text-0"  >
<path style="stroke: none; stroke-width: 1; stroke-dasharray: none; stroke-linecap: butt; stroke-dashoffset: 0; stroke-linejoin: miter; stroke-miterlimit: 4; fill: rgb(0,0,0); fill-rule: nonzero; opacity: 1;" vector-effect="non-scaling-stroke"  transform=" translate(-132.53, -68.25)" d="M 128.329 68.246 C 128.329 65.92399999999999 130.211 64.04299999999999 132.532 64.04299999999999 C 134.854 64.04299999999999 136.735 65.925 136.73600000000002 68.246 C 136.73600000000002 70.568 134.854 72.449 132.532 72.44999999999999 C 130.21 72.44999999999999 128.329 70.56799999999998 128.329 68.246 z" stroke-linecap="round" />
</g>
</g>
</g>
</svg>